<mxfile host="65bd71144e">
    <diagram id="S21LYBpsSEXP408gSVVb" name="Page-1">
        <mxGraphModel dx="1268" dy="738" grid="1" gridSize="10" guides="1" tooltips="1" connect="1" arrows="1" fold="1" page="1" pageScale="1" pageWidth="850" pageHeight="1100" math="0" shadow="0">
            <root>
                <mxCell id="0"/>
                <mxCell id="1" parent="0"/>
                <mxCell id="2" value="" style="rounded=1;whiteSpace=wrap;html=1;arcSize=5;" vertex="1" parent="1">
                    <mxGeometry x="160" y="280" width="508" height="120" as="geometry"/>
                </mxCell>
                <mxCell id="3" value="1" style="rounded=0;whiteSpace=wrap;html=1;" vertex="1" parent="1">
                    <mxGeometry x="340" y="310" width="10" height="60" as="geometry"/>
                </mxCell>
                <mxCell id="4" value="2" style="rounded=0;whiteSpace=wrap;html=1;" vertex="1" parent="1">
                    <mxGeometry x="351" y="310" width="10" height="60" as="geometry"/>
                </mxCell>
                <mxCell id="5" value="3" style="rounded=0;whiteSpace=wrap;html=1;" vertex="1" parent="1">
                    <mxGeometry x="363" y="310" width="10" height="60" as="geometry"/>
                </mxCell>
                <mxCell id="6" value="4" style="rounded=0;whiteSpace=wrap;html=1;" vertex="1" parent="1">
                    <mxGeometry x="374" y="310" width="10" height="60" as="geometry"/>
                </mxCell>
                <mxCell id="12" value="topic-A" style="text;html=1;strokeColor=none;fillColor=none;align=center;verticalAlign=middle;whiteSpace=wrap;rounded=0;fontSize=10;" vertex="1" parent="1">
                    <mxGeometry x="200" y="368" width="60" height="19" as="geometry"/>
                </mxCell>
                <mxCell id="13" value="topic-B" style="text;html=1;strokeColor=none;fillColor=none;align=center;verticalAlign=middle;whiteSpace=wrap;rounded=0;fontSize=10;" vertex="1" parent="1">
                    <mxGeometry x="334" y="374" width="60" height="19" as="geometry"/>
                </mxCell>
                <mxCell id="15" value="" style="group" vertex="1" connectable="0" parent="1">
                    <mxGeometry x="202" y="310" width="58" height="60" as="geometry"/>
                </mxCell>
                <mxCell id="16" value="1" style="rounded=0;whiteSpace=wrap;html=1;" vertex="1" parent="15">
                    <mxGeometry x="10" width="10" height="60" as="geometry"/>
                </mxCell>
                <mxCell id="17" value="2" style="rounded=0;whiteSpace=wrap;html=1;" vertex="1" parent="15">
                    <mxGeometry x="19" width="10" height="60" as="geometry"/>
                </mxCell>
                <mxCell id="18" value="3" style="rounded=0;whiteSpace=wrap;html=1;" vertex="1" parent="15">
                    <mxGeometry x="29" width="10" height="60" as="geometry"/>
                </mxCell>
                <mxCell id="19" value="4" style="rounded=0;whiteSpace=wrap;html=1;" vertex="1" parent="15">
                    <mxGeometry x="38" width="10" height="60" as="geometry"/>
                </mxCell>
                <mxCell id="20" value="5" style="rounded=0;whiteSpace=wrap;html=1;" vertex="1" parent="15">
                    <mxGeometry x="48" width="10" height="60" as="geometry"/>
                </mxCell>
                <mxCell id="21" value="" style="shape=image;verticalLabelPosition=bottom;labelBackgroundColor=#ffffff;verticalAlign=top;aspect=fixed;imageAspect=0;image=data:image/png,iVBORw0KGgoAAAANSUhEUgAAASsAAAErCAYAAACGpKW0AAAAAXNSR0IArs4c6QAAAHhlWElmTU0AKgAAAAgABAEaAAUAAAABAAAAPgEbAAUAAAABAAAARgEoAAMAAAABAAIAAIdpAAQAAAABAAAATgAAAAAAAABIAAAAAQAAAEgAAAABAAOgAQADAAAAAQABAACgAgAEAAAAAQAAASugAwAEAAAAAQAAASsAAAAAeV0WiwAAAAlwSFlzAAALEwAACxMBAJqcGAAAQABJREFUeAHsfQmgHEW19umZuVv2hew7CRASCAIBZJXFBVAePpWIIgqKoCA+RAVBeV7cQUXFBcEFleePRtTHQyDIKgKCyhZI2AKBJIRA9vVuM9P/91V39dT0dPf03Se5dZK63V11aukzVV+fOrWJWLISsBKwErASsBKwErASsBKwErASsBKwErASsBKwErASsBKwErASsBKwErASsBKwErASsBKwErASsBKwErAS6DcJOP2Ws814V5RAVH1yd8UXte/U9xKIqlx9Xwqb484qAdafDFwWbiTcBLgGOF2vWnH/GtxGuAJcEc6CF4RgqfMS0JWq8zFtjIEsAdabRrg94I6HeyvcXnC7wYXBah38noO7C24R3AtwBDELWhCCJSsBK4HekwDB6Gi4m+B2wBF00jryM97RcEzHkpWAlYCVQK9IYAZSvRpuO1xagIriY3ymw/QsWQlYCVgJ9KgEDkdqD8JFgU9X/Zge07VkJWAlYCXQIxKgXeoZuK6CUlI8psv0LVkJWAlYCXRLAkch9uNwSYDT3TCmz3wsWQlYCVgJdEkCsxHrdrjuglGa+MyH+VmyEoiUAOfHWLISiJJAIzzPhzszKjDsl81mpbGxUZqamtS1vr5e6Oe6rnJh/ojnWfDbAvcQXD4i3HoNcAnkBvj729ePl8AxCDo1PtgLcRxHdtttNznkkEPkpJNOknnz5imwam1tlcWLF8stt9wijzzyiKxbty4NaDG/B+CoZVmyErASsBKoKoHh4PghXGL3DUDlHnvsse5dd90FBSqeGE4+8ldL08+X+VuyErASsBKoKoEjwFHVqH7qqae6r7zySjxKGSHkIz/SreaYL/O3ZCVgJWAlUFUC54KDa/ligeX44493n332WQOOqt+Sn/GS0vXzZf6WrASsBKwEEiXABck/hosFlQkTJrg33nhjdXSK4GA8xk9K38+f5bBkJRBIgCvmLVkJmBIYg4cppkf4/vDDD5ejjuratCjGY/wqxPxZDktWAoEELFgForA3vgSG4To6ThqcjrD//vvLxIkT41gS/RmP8ZlOAjF/lsOSlUAgAQtWgSjsjS+BOlzr46QxYsQIGT9+fFxwKn/GZzoJxPxZDktWAoEELFgForA3vgRoT4olzqui6w6lTCOxHN3J38bdOSVgwWrn/N16u9SxQNHR0SHt7e3dyp/xmU4CxeafEMcG7eISsGC1i//AXXg97uLZEhdv8+bNsnz58rjgVP6Mz3QSiPmzHJasBAIJWLAKRGFvfAlsxHVNkjS4fObpp59OYokNYzzGr0LMn+WwZCUQSMCCVSAKe+NL4A1cE1Wnf/3rX7Jo0aIuCYzxGL8KMX+Ww5KVgJWAlUCiBD6IUPbTaDuKdHPnznVvvfXWiGmf8V7kZ7y4NH1/5sv8LVkJWAlYCVSVwD7g4Gk0icAyf/58F5qSC4N5PEIhhOHkI3+1NP18mb8lK4FdUQKuI81uTrmz3Tr/3nZxu/5Tc+ugL8JVBZdp06a53/72t9U6wY0bN7otLS0utodRVz5zPSDDyZcmPT9fu3URBGGpXALdmzBTnlbfPp3vNsgmGY7pi8NwdOYkHKvJM+uyOHIzi+d2uC24X4G7LQjbIjc4PFHFUnoJ7A9WnkCTageEWbNmydve9jZBN08aGhqkra1NlixZInfeeacsW7Ysba7cy+rTcNx5wZKVQJkEdj6wOs0dBoCaDAA6AmB0HL79h+CNxuB5EJx3FjDP/SVgOeo04GfAcw/u/4Z4L8g1jh1lKqsCiQ8fR+hVcEMSuXomcBuSuRDuZz2TnE1lV5PAzgNWzW69rJQ9ATofAPicJjmZBrCKP5RcA5degtYha8H9J8T/FeItluscHrhpKVkCXKP333DUdnqbqMV9BW59b2dk0985JbBzgNWH3dFYKfYuAM2luO6pdlrSuy2llTtBi65DXsffq6CHXS8/dAhglpIlMAPB34R7fzJbt0J/j9iXwC3vVio28i4tgdoHqw+7kwBQFwCoPueDTfd+EJpuaeoVWQjQu0R+6byknuyfJAnshcCvwb0brieN33mk979wX4J7Ds6SlUCsBGobrAhUOTSSejlDnXdCW1RPEN+aTa4gdwK4zpVfOKktwD2R/U6aBveE4QjhqXCjeuAdNiCN38F9A+7VHkjPJrGLS6B2weqT7khpk8ulAcdBcd2spw313M/BN6fNqyiLoLWdIT932D20lCwBHs/FCZtnwXEu1FC4ztJWROBanZ/D/T84uwYQQrBUXQK1CVacK9UhH0X376cAEwJKPBHEGB4GMw1GSW/o8XQg/s8xueF8+YNDS5il6hLgTp6nwZ0ItzscDfEEsjgiINFw/hLcbXC/hVsJZ8lKILUEkppy6kR6lhETPM+SfQEgd8BGNV4Z0+MyILTgDUY1wQ0WafCtKR3w34Cxvo1wBQIZNai4N6W/gxlbBfmEXO/Q0GspvQSoWR0NxykHvMbRfQjgFAheqVlZshLotAR60lja6cwjI5yOcToXWk4DgKotksPTogBCYwBQB+0h8nZ0SA6aITJ+OILgvwXf8X+8KHLvszgx8xlsIbAF6cQBlqeRjQBgfUpOcRdBu0rcuySmRAPVm8BzC9yhcEfDxdE/EEA+S1YCXZZAjYEVtKoGmQmwOhXdwHgCIO0xDmebv13kY0eKDKqvZN1/qsjZbxH5/T9FvrsIU6KXg4dTF6I0LPplZK4Mlvfi7pdwltJLgN0/6LaJxHDysTtoyUqgSxKgvlE7dD7G/YpyMmxVQ5QdKqpkAKrdx4p8HxaT84+LBiodLYe3O+3NQJ+P4tO/J3xpqI8ialculu1k5D1RwdYvUQKe9BJZIN1Kq2JyDBtqJRCSQG2B1Q7oNiLvVFU7VFD1iCo/Et/ni0+CZXdeFEO035ugZV25QGQcVw9GaWxeU6LeNVfOdOdEp2J9rQSsBPpTAjUEVugCFrAgmUPiNJyHCYDCPuths9G9Q9evszQfNq1PvRWxotLWiWXUUPxh+tFerQSsBGpHArUDVqegE5aRGbArDY7TrGib+iC6dV2hRiDdSW8SGT4SsTlvOooc2FUywtnalqwErARqTAK1A1YjARPoqSn1id2yCBqGtf9HYvSvqzQBo4UHTkfsOLByYS1zUQZLVgJWAjUngdoBqwaAlRMPFA4AbDzOxdytK3OmfbHXwyo1m1AU3xXMAKxoN7NkJWAlUGMSqB2w2gqoctXkgkgRcXYBu3LZbpa4anw3rhMaWSzraSVgJdBHEuhm0+/BUm7HZAXOJI+hItBqDaZrbm6JYUjhzdnsr3HKZ/xbuyhDXCcxRQ6WxUrASqC3JBDfbHsrx7h01wKsilh9D0CJo/WYib6kG+vzNwHo/vUyUuewYhRlAFSOrIsKsn5WAlYC/SuB2gGroxVMrcY8qHyc5rMD859v+nfXBJYHCD60TOSV1xE/DqxctcBneddysLGsBKwEelMCtQNWzU4RY3EEiuWRYIVuYBuM7Lc8JvLPlzsvkpehL11zD+Kxk0cDWBQVZDssVl2Ew6gErZ+VgJVAT0mgdsCKb7QRNitH7os3s4usWi9y2Z+wv8iG9CKgrevHd2Nx81LEaUiMtwKA+a9EDhtoJWAl0C8SqC2w4uo9V/6slsREaT/wK6LEf10s8tnfiTy5Es/QtpLoadi4rrxd5Id3gqsOLiZdaHPUqu60B0kkSdOGWQn0nwTirDf9UyJufvdB92HMI/8bgOUtkev4CDZwf8CmIy+vFfnoW0QO3l2EEz4HU2sCeLWhq7cKB249tUrkfx4SuRPgpkCKYBUFbh6AvYI9AW4EhyUrASuBGpRAbYEVBdSBPTsb5QeYuHkYtJ26yNFB6oMAnn+9IPLoKyLcDmbeFOxvNQRYBDDahn2wHofW9cQK7EnC0+i4OQkBKQ6oHGwI52A/8BudZ8FlyUrASqAGJVB7YEXtipvgDZFfY8OYsxTAxIEMNKkiZqM/StAizGg+AhP3UODbDTL8cVtG5KNb90SL/PPiZ8rC7IOVgJVATUmAOkrt0R+cFmhO38LI3cPUoBKJoETNiYtkoFkpx3v6Eaw0gOG2gvj2m2B1f/hzo+TVv34KT3bHhQohWQ8rgdqQQG2CFWVznfMigObz6BYuUYBFDainiGkRyLZg4tVj38C09rv59Ba478JZwIIQOkHc0jB+taWXEMPJZ8lKoMsS6EkI6HIhEiN+xD0OwPJ12K8OUXzVmkViYggkPPOtNz4Fw9YVIi/+NhzjEXh8Fu7BcMCAfG52MzJqGfTb9Q1YmDlI2usapaGpQTqKdTJ0cFFeW9Yo/6/5Atm89vRY+Qwfd4O8/8s/kPEzW6VtB36BTAesiW2Sr2uVbN12xGuT8Y/nZcGC7v66sUWwATu/BGofrCjjM90DADKfhzsBQDNcGd0TluVE/iwEKbp2TIN/DbNDl/wQQ4aLIlnhScD6HNwDcQy7pP/CJfXyavsgbGo/DPAxROqLOLwjNxpHBA2H7NC5dil73dlukFy2KO1t9fLMw0fIupVvEgfVia6M8Dxq8pMy+9CHJJvLw8iIfcuyrUgHU0UK28G/WZzMVuhmWyTjroM2vU3qm7aJm9ksu03dLgscq5GVyXPgPoRrVu1K4mx3N1TwD6Eyvw+ANQ+Nx9sshqAVZ5fi2xGgSEVMTNixeq0887MpsuwGHAj1oucf/5eA9Xm4v8ez7OQhzfc2yrgpw8TNYzcxd5Tk8+OBNqMh0DF4M25T2AhZDwKYYCgDGpbLjXows83NeBLPZopS6MjJsicOkA2v7u0Bla5S+opURk16Vqbv94RkAW4qHeq2DrfjccRxs1LE6gVqV+K2IA2s4JQN+L3WIozgtRpZrof/BnE3bZILD2O4pQEoAaNG7SRv/3F3Lr7Cx6OaH4kRvz1Qqaeg5IPxzP2wPGJTYvXnlARBpRd5Hs8PywvXvyh//+gH8XwCXBratQCruTkjY98DLSm3G84sGwuQmCBOcQIQHSAFrUlcjp3Cfgfw4FY5LiaCOJSkAhMEAfld7n/hUzbrSh5g9fy/DwZYzVW+gWZVYpPRk5fIzAMflVyuAC2NQyJIJ/i1/HuAF4FL6DIAMl4dzJhzdwCsNsFrNfzgMqukPvMaivqGrJu0UbhMy9KAkIBRo3ay9z3LHYdmtB+q/N4o+WTcj8E9DeVsDOjrAahctc5wOa6L5ZfOS/AjYXNj+TbcW/mQgghYF8Hdn4K3Flkcufa50eh+jZd8cRKkMwWNfjKAAYDlNEFjycIV4AeA4onURtt3feSB/qNeDBiiwIosLvbMz+WK1cEKUUdNXOqBVX1BdQMrgMoQm+PnSR6Pz/tNCWQE0EyGmwnhA+SswLssF6ewQvKFV+WCfV83UrG3u6AEdl6wMn8MNpzzoF1l8elvU5BVwLSHNowowpAbSV0BrJ2rS3j1C8Mkt2OC5OqmoKu2BzSSyZDEKKAMunTUnHgcLMDJUV26Uj0wNae+BisTqMyfjaDlsAuKrig1P9fJeVpYEcuzMusQ+jL8lkIDWy5tHavkknlYv2BpV5NAqZLuam9W/X0IWFfCva06q+KofQ1rIbSP9c+jS9cxHTrILDToGSg57E9uI7SRgmTYrUIIydNacMP2j+auKQqsFEeGHW3EQzewK5rVrIMehYE9XrPSQMW8grKF7rWGRx4HHyh2F7lXhwC83GIr3mIN7l8AgGHyXGGZPLP9VbluftwHi6lY2okkUKqkO1Ghe7CoBKwr4N6eMk0C1sVwf0vJ3zds1/57kOSGTEGXbJYUMnvBWI6unpomi4bvYkNBdvN8W1MFKCiwYjm9uqD56KM1Ky+U4ACufgKrMqAKDGN+r5VFd6FtYc2DKnNxGzTG5fBcDL9nJJt/Uc6by4VXlnZiCdAeMJDpCbw8wYeUBrAOAR/BrTZsWL94dqh05HcHIM2Wjta90FDHQePACT2cx1TE6BrBxcMgpRUZ5ii+sEf0pJnPU7hUt9AELJ8r4GW3MQPACmZE+emX8fXQg6lhxSWpeFB2R9ncYKvkeziNuOyHm71xXS357FPy3aVPSEfDM/KFmdzY2tJOKIGBDlb8yboKWF9A3L/1y2++cMkQ2ZjfUwqtczF4BpAqjgbIEDU60Dh1g0Wb9bUls5BqhC8wnNNkjXg+UJl8SfdloEeg6GwCfuJpwCipHGXxDdDkPvoO7JVFhcJTkcRUyGe+1BUWy/eWPSptztMWtJIEW5thFqy830UDFlvtO1L8VG8GDzUsAtZ9cH1DC1c2yYa1e8qGjn3RGPfG1AMYzAkUHEjgfhMkAhFveeHUA61awYs9vjKgwbPy5FVHUvfeHwfxza6gEVR+62dd7tlzTybomu9T8S7IUvHiRQlkrnpbgLdSMal1vgPAfgBM9I/Ld194RIo7npLP77e95wpqU+pNCViwKkmXgEXwYcs7vuQde8cu4bfgLoG7N5arJwIWLszKpn1nyqZNmCWe2QctkhNkQW47bEg+MvkZxQEMJ3LS3qSimSDGhIhiKSglW9WUCCOmVmQCkOmflFAsXwg4vS4tuDOtyJNvsBtgDF1+FxOLB/1brnrmAdkye4mdr5Uk7NoIo7HCUkkCGE2Sp+Gmw82Cq0acDrA3HKfDvwzX83T9kvHSOupwKXa8FQ1sH2hKWAKD7h6tRlppwnxKhHlApEoQBFDRKvlzBE235ZI/wgO883mj0mLC6GqSQ43E4YbzrorYu3XD6knSsnVsWdaKUfmINA1bi1nsr4EfIKXK4OfjM5XKwghemAlG0ZqV8S5GZiotJEEMLrO9KTkwbVrbIDsZAYcpHdmZ0rBxqBz7X1vlrqutPQvCqVWymlXlL/MkvLSGdUJlcIXPwfDRGtY9FaFd9eAIX8aZhzlS87GX8+5IBktfuE4Oc6Q80NENvjIHpV0pGxYarKlFgZW4prQyP1qg5TA5H8loRC9r6D4vLwoE/GfqR1UpVEwThKrGDTGYoGa+g2bTXUD9XH4tFcSDOWhaCuXxUcIk2QbZV7774r1SHPywfH687RqWy64mnlh1LVVKgIDF7t1tlUGRPgSsb8IdGxnaWc+fPTkDS2JOwvzHkwA2c4BPnGXOboynmTC9kl6Bh6iWG4Ejek0f4xPEAmI1MB4D/+7elPAB4Ne1xEytSqdgAl5UuAJUv8ur4kRUc5UGZOBiOY8DQ3zRnY8ynimZHWfId56brbOy19qRgNWs4n8LAtalfvCJ8WxBiAYsxrk78O3MDQ3oW9YdAPA5FF/9qapH5AKkNMXZoxge1oYUL5oh/1cltm7VoIlY5RHCeWpc6yz2KCWmSkFMEKrCWhEcq1Wp9yp/JzMfxnPRLXSlBWmOQrcWv3Vmlnxn2V9l7JD75cNWy6qQdT95RHxy+qkktZmtBqzOaFjfwKsc1+nX+dnDk2XremhT8k40mBno6mH4PZ88+zqsXXlLZyqzNrUoalfhX12lkwZ90vBUZh/pYwJGmCEqLKoLWKZV+ZohixjXhWU+FWmbNj18GBwXM/0zc8D5EVkLLevKF2YymqX+l0C42vZ/iWqvBBqwbk1ZNGpYBCwYxFMQR/que/xNIvXvQZfkMHT3sMYxi6+8303jRiomUdNJS4o3gd0EMYVghgISB3xFoEFqzDLy7mo3MO27hhRCL1qEVhWVni4mgczhLg7YqkZkGHaIgJblfkKufOlInAtgB6OiZNeHfrYbmE7YBKwv+qzvTBFFAxZZ74rl/82Tg2VzO07xcQ8Fzxj0wDDKx6Ux5mgckSHhm0KtKNAWolDEB6Cwob2iUFXyMfnDXU4zLO4+rhtoakzhuGWakx8YvGuYGc98ha5qVQQ7Mz9XnWGJJTzZ/fD77CYHL58g85+9XS6ezW2HLPWDBBJaQT+Upraz1ICVVsM6CK/zdbhoDev/PTUOm929S7LOcWhgnPvD/SK4G4Kh3vgC6Yx2VaERabXBEG5yVzAighE3CThNtp68NwEtGo8hs3BVrqZV+d0//bYmUCnQU9CFaQ7QsorORPxGp4pT91H57rIpPflqNq30Egj/wuljDkzOzgIWNaxKwPr5o7NkR/u70cAOgSG9AVMUMNLH7p3REstAB/5JgBW2XZm/TbWuoMkbdV8BnigLJ5ey5pgNPCqu8tNoEGLQ76e7olpj0tcQu3rk7ChNqfLWzLgmpWsk62lnpgfTwI4OLnZMdd3jsVD8bLlq5b5Gyva2jyRgwarzgtaA9ZeUUXWX0NOwFr4wB3uPn4zGjkW2ACi1js1vHJ0FLLMAJmCZ9yaPBoZqfgyP606pCaEMNwzTZnoV9yV8KQ8i6MHYTyKg6jLzqu/LI0Q/KdBCNSbOl5c5LmNm6IWp3HFbFfjArzRftSvpIdjd4hz51rLDogtkfXtLAtZm1TXJasBidecIXjVCl9D5hhx24h4yaGhOWnZgQzyO9Cljuddw+NlQDU413FJDY4Mub4SlvNjI04CG4kNz439NqisIDYl5kgLNg/OTjG8YN70LwsiHZzZdpbGpmFX+hDUrPrMcyEO/V9Q7qHxZZHO+lJ9VGFz0OwQlMcpPP7P8ZUCFMDMtJX9VuCAlMPhC41XZExmGeVjZj8k3lw+T5evvtntmGeLqxVs7wtF14b6OqEvgJsHtlSKZSbJj6/5SKGTlTUeulrZWdOx8+5RuMLpdq2fdqJmytmPBj20mqvGRzWtW/l82WB1PBbKx8YZpQHchCOBasgf5gf7Md+YTxFcPjO7zMA3885bPZGQ9l9tsGwtNSSVZujIL+A0a9oaMHI/lNtiz3UuTAaX0K8rAIDKQR/Exms6dV3oyCFekT1Fp4POA1gtXTOqP8ey/i/bWaSUClU6IcbljKTYxdNQawz1lVH1RjvjEMrnvJ1zGY6kXJWDBqnvCJWAtheMaweqA1bJtqKx6gafIbJP9jlwrHW3lgMUmxYZHUg3Yb2OqfWngUe291PjUndkA/YbsJVTiIzAxiOlSW4mP5/GpQug8VfpEohywACNkDvbMcusBRNjsrsCJrBOldTsGCRA1gyqlQMu/ZqC8Dxm5WUaM2whwy2EOGePBUx0IgQh4H4KeKpxfdgXiftUMNCtVBo9LcbNs4AmAOyirkp4qPv8E4cobcZQf/uBWAxX9sIiJlxL5+QUeKtjk4a6rw7F32CzJNThyxIdelPuuS54XF6Rlb7oiAdsN7IrUyuMsxuOX4NiE/qM8KOJp3Wvj5dbrj1KN6D8/8bxs2VAHbYtWGjYrz3CtvvLsDhpdMrM7SGO72bjM7qBOiVmXx0EJ0QCDxs/wyG4ku508KQhLfLgMheAEIHAz2O8cI2MujsrK8NQgnPWXyW2R9h0FeepvQ2XNS9xXC2ka7ZkS4WLn8bOWyaQ5t0l9Pd41jwaOOUwuGrrgXEIuzBYXB1eAV70VtBbvinJoAEJYmFR3lKDLbrKKDQ7kRQjSFPhrD1xZJlI5UHl+sX9VkpSsSfTk6gKeCrRAmkY1yY+X/N7uSGqKqGfvLVj1jDwJWJfBsTqfXDXJ9QCs2395pDJSvedTz8nmdfUKsHREtjkCViwhkNqICViRvORDQGATwjNtVSZgBfEUMFLjqVPdNbeIIXucIpNx3kDLfkOd3Yf9FaTQhtNlMGmVpylPmrVDHvqVI3+7cT/Jt2HRd3lr9pJGm37+4edl70P+KIed4crrjw9GFk3Snm2SpsxQ5IHtbrDlTUbtcjoBSWCPLgcHqSrtj5voAbwAqprCAMQQdZgEXjQcpuOoq4miJTxTcq6IV8EbBVQ6dezI6uIouMy7ZXuTI99ec6NdCK1F07NX41fr2YQHaGrz8N7NcP+Z6v1Hj18jJ57xd/nPc0salv7ia7BS3UGlMXhJBrYZPsJfA1YASPBm4+M/pmGCVdAo4akAC43SBTg5PHBBbZuyEUDE8/lW4aj4V5HQOim4W2Vofqs0Ptcac7w7P3hXwF0IF0dXIeBiOHadyqn53pyMGdso27LDZJAzDGUZCw1tKsozHQA5FeUfDbBlt9Pb/ZN6lH4/ddiNSs6rx8H74d1L935+fFfegjUs4zLeTgCVhlDm7mLfBh7U6mRulKZpN8mnHYCYpZ6UgPcj92SKAz2twSPeJA0NP5YNr6cb2u4WYBlgRbkTsBSYEYzYKkEErJIB2wMyTMtGKOxN2Lgvg5OOi7ISje1FKbSvkkzTWmkbtlkunMIlJ2mIjfSbcJ9JYP4ewriLRboGzO1xtg8dicG3cdDypsHONRtd0ZnQCnHWIWxdPHDNzcCgrYClVIcD0GH3kfYsaoskDVTqvlw2QRyfjxdFKqoPcNrPlykfA6DS4EatNQuZutuR943StvXP0jy3PYhpb7otAdsN7LYIjQRcfOr/+FxOHr7zMbnpJ+Pk5WdmGqHRt+vXjJfbfoUuIajUJfQaFLUiUjHOfqWQCAxoWKZmxTha/2AaKj4bFQ+TwNFVDncYcJ6F2vUsNKmXpaH1dekobpJza+TYqnPm70Cp6V6Va92nJL/0H9LOWeTOngCtebhSroPxPtDU1BIldIlLapaSBxgC0sBCOZkgXgZUAbe+CQOV9qdsPTI/AjDzgWDXc4ZC4KdK4+Bt0nzvHdJ8TKU26Ue3l85JwIJV5+SVwI2v+S/+PUcacm+XA4/ZLrns3XLj1QV55dk9EyJ5QRqwikjjfec/69uwSg0rABxlVypPLoOh9CKnG/gtiAZn3QXUgCU8Ww+GcpHNUDiewz6jS8TteEXcoevl03uk03bKc+27p3MARsLzAOGuWvmMtG15SBqys6ARHgCAmgfwQjdRdS+NkTiN8n4x9UBCIlBpDQlxFK77cb0L5OtTJFAxTLEwB2h9LkcJT5fc1M34XR5EmI6lU7HXLkjAglUXhBYZ5VeP7o5K+Q4p5kej6bTK/kfDMC33ye9+gA2Pn0sHWIt+7WlY7z3vOX+UkG2g1FCiMibAeX29UihBSsWkLYpTDGQTGg22a84+KUOKK+S0eXjW6FaKVvN3Xtd0Bcq5Uq59brG0KA0LS5bcg2ArGo1X4uk+EZqMD15UREkVGlUFUJlaVUn+GnJMjcpLscTjPQOwiuNRpjPl26u2yOdxfqGlbkvAglW3RYgEfvMgJkQW344v/UQsdm1TI3utmEMVANbVAKxUGtY4WfTrI1SRNGDl85jOgLbA9sbuHDGmorHQjwFg4nA/7TqiDL6bMWr4CMKexDGCr8g5++FLv0uQK+fstQ5vsk5+8srz0tr6MN75ULhDABAj4U9tETYtnyrASQfwmghUJUZIV1FY9mqAI4xVeHZd7I0FMG3Pf1S+tfoq+cJEgqylbkiAldpSdySw8N4h0t5wPCr9HNRQbvFC4IADaBTRbZs8a5vsNm6trHxxKLp3+PpXoZZtQ2T1i6MxYXS7zD/mdWnHTPcC0tHpqtRVy/FaCP9qexUbklukwRsjZ8WnMPp/h7QP+oecu/cK+ct1vdXd4wfvrXCHwsXRwwi4G64EIHGcnfW/9futcsePXpWjP/681GVfxjtnAdsTgOxNAG/kp7QqT1beL8Mc/GcDqOhVCWoeXxRQUUtT/Dppv+A6DZU0Jp45zmTUhcEy/4Kn5QGU1VKXJWA1qy6LDhEXLqmXth2HAhj2wxONvdjihe2DGg6BA5M9Aw0rgy7h911oWHtVzXL9GmhYvzlSNalTLnhWNr5Rj1nvGaVh6chlEz6hcRUzdVIsYIZ5bgUmXj4k2ban5ZzDNmj2Xf56ybyNeMcH5dvLXsCJ0Vg8nnkHnmehh8y9Gtg9DKGKKZEqQKViGsBG02EAeEY6FXnwcA/Y3IrusTIsu1KudhfaKQ2GvDp5azWrTgosYG9uzsjw3XHQaBEHZwIouB2uJvbWlK0JlTrQsGZCw5qwTlYtGyKb1u2mWWOv1LBehYbVuqNFDngrRuu4NIetRDcalQeiY20Lt5nhJE4n+5Bk6hbJiH2XyOlTOZrWF8QP3lvh+kezCr/hnVdvl/d+ZDk0yufRFYOGiaVQrgyB2LzfpwxQKEv8L/NTCcITFKdRBb+B4vL+hNNgCkrjVVukcp7YTOnYsEKO/P4que9ynbKRgL2tJgGrWVWTUFz4zHeNgzH9OMwD4jl+mE9Dbcr75KooavsXPtMfGlY7bVhHvYF6fp/ciGlHaTWsO26ADQtpcJRwG5bm5DsITl5jUuvrMMrnwuAsufsw1ve0fH4O5vkMcDpHTcF4Xq549jXJ1r+AD8bJAItZACZOLMWMeON3qhRVNFAp47yHQBVRooCq6P9G6rcqckrDSPxcH5bsytWI/2JFGtajqgSsZlVVRBEM3I7YbXsbgGo2VHzYqfihREVW9ZOjcwZpDQu1VdmwJu2+XcZMXCurYMNKq2HRhtXetkPehBHGfDvACuDnQJtT6+Oyj4mz41b5+Pxn5PDx/TEJsbY0K0P0cteP2uWs778iWza+gPlk1D6n4cvBaRzQsnytyuPXv5l31XqPNqYrbFM/Ln9kMwckF/JgsAYqcipg5AgJNTtnArgb5KhPPyX3/cDar8olWfUJn2xLnZLAvVgekmvF0eMZTE4sAqh0Z4GfXjg1zwlznTSZG+ppDWsedlx4/wX3yfS9n9dsiVfasO7AtIabfjBbhu3WAW0BQFWEBpX5KzStm+Wsw19B21Pf/sR0BmLgAoDEZ2c+L/nWX2AL6Rvxe23Bj9QUgIwJNvzV9C8XAJUSWgihFB9/ecNfgR8+SArUDEmziSk2cGMJjuMcK7ncMdIMe6elTknAglWnxAXmlUMnwpR+JICCyz5wbBMNVCb5mEHQ0kTAcguorLx2YG9QdAkPAGB94IJ7Zfrs5zRb4nX9mrFyxw1HykIA1qhxy6Su/s8yLHePnDN/V5mOkPj63Q68dO/1si3zR4DJdQCZFQAQaFrsXwdUAp4yoCp5B5xlIBX4lt+QR/GZ8WFD41pMF7s0ZIbsUR7BPlWTgPljVeO14ZymIO1HqNNOnEJpxjQBqwy0IgCL0uMxVmoHTHTjCFhvImB95j6Z0QnAuvXnh8hl73Plw/v+WxbYtWedqpTNM1qlZfd7pZi7BoCxFHGh3aipDoF+HKSnfkIFNCbaRHf78KOqeEozQ59R2anoVRaVebC9tcFNkWzuffLNVzgnzFJKCViwSikoWYiJlu2D90bdngs7FQym+BemtIBFLauDGlaLD1gXptewNq+fLE/c/1FkfWI4e/ucQgLN6C5fMu1RLCkEYDmPAn2wXxcWIWm40lqVBzRlaINf3HgGQBGU2O1TIKXzjmxSRjzwOZlWfLiOBmwdLmf/mzY0SykkECnZFPEGIMu/xmD+zuGwe2BjOt8+pCu4KY0KwKI2xfV6vtO87BJqwNrviHXyQQLW3um6hCIHIJmvw6U5w1DnaK+mBC6mNlu8Bj/Ogwp01AJvX0PyBgvLAcYEKoaEP1U0pFd0+xS4+emwqWkH46ZbrMM2PAtkytipZrHsfbwELFjFy6YUcv29jdLmHgiNaoIyqgd1DizUsMJaVmS3kP0KH7h0yuwSVgDWHOyGkIpwirN8De5dqbgtU6UEvjBzhbRkf4aAhwBaBBvsjKqwJRmoTCM6AUqBFCtFWTTjwWhmCtRUJhgNLGI6hRyPDfuwg4SlahIwpFiNdcCGY+enIROhVe2PLyNnQpd/UzVwxYFWlNhM43sZYB0ODYujhJ0CrK8iCwtYUXJO49c8dTW69j/HR+gfmNwL4EG30KSwRhUGqkB5CrCJN/6DrhzwKYGUl7q3uynn5x0vLYU9S3G8YPu3UgIWrCplUu7zmycHSbEDK/sF+xT5s9QjgQnRKM0KMIsyvlfRsE6D0X3WPmknDlLDsoBV/qt17uliApb8EoDyBH5ETrr12oUJVEwxEqjKsgoQy6sMCAuDVDk7B2lw0EbxP6R5+fCyIPtQIQELVhUiMTy4mV79thmov1hWg/VlYQoDE8OjAEv5R4BWWMPKY3lhR2tW5mFN38ln/1Zy9f8bzjLm2QJWjGBSe7NL6BR+BuDAKCGnF/iAxQTUTha+PUs9U3MycMl7iNamKgqACkIjvtLikIiL7YRc5yjJNO6nBnEq+K2HloAFKy2JqOsflg6SDrXJWz2sGUCSCIrTsujvWTNC3UaAVkC+hmWCVqEjh9nq6+WYk3+N2eqXgHVhwJ58Q8CyNqxkGSWHXoJTeKT+V/jdXgZAYYtiggpBymgmwbQEnRRWJigij8nnGb80lwpT6SF1M4jLf3jghJt/pyzdYrWrksAq7gzpVoQNbI9maFWtm6aj/mFXSkxVIHEEjy6KwqBlSpagZVLciKGr1vltxqLl++Rd015CFBrbm+HSAtZ+4LWABSF0mS6Z9Dh+aMx0d9YCRMpnmSugClImSMFxxZr/Y+suH68mKc2MvOXeisUL49KbgyW7Y57VrkzBld+bTao8ZKA/zYFW5UCr4pA2t34xqRpombz6PgqwykAL87i4HMN1/ylnvhkNJqBncNcM94fAJ/mGgMVpDWmOtU9OaaCGfmHq3fjdb8XvvgMiyCmQKQcqXzJG8wkDFDmC7iMBrYKIXJ5TO0I4jbBvWe2qQkwlD0PaJc8Bf7dwYVZpVVmZiY9mO1y5ZqQFFAdaYS0r4I9IRwGWOuwAWltuqQwuPgDQCudHwPoyXFoNi0eCUcOygAUhdJrUCO22PwFsHla/Bac0lEiDTMmnAqjQrBS4MVqFNlUZnyk5mRbEOchqVyWxhu8sWIUlwufWvRqlzmGDx/7lvlZFwOoJ0IqyYzk05jqvYtO8+2TBYS1RRYJfZzUsC1gxgkzl3Tx3G4zgN+JXX4Y6YIAVm4zvdLfPTFDbpaqClMYsXGlsh1qF4cZB2BL7bbL0ZYw8WwpLwIJVWCL8FGa3YK8qaFXcYTJMGrSigCtJ0wqno0GLx7O7OI49m3lYzjyYp7gkkdaw0nYJLWAlSbNa2GVTX8TuqzdjxsomsNJ+RYTxKKxNKZBSW8FoDvNaiqeSMB5191JdsQzHyRwkhfoZVM3MBOx9YBm0oggkcP3yBmzBMgfTFZpQr7BZW4xBnRGiAIv+UaAV1TXk1AjO3crIUql78QlGTUEErP+G60yXkDas/0iRtmUJS2Cv6XcCQB6Ew4eL+1WDooDKwDEjCQKOATr+rQI2PdJocPNknqI7UrLuMXLRc1g0b8mUgNWsTGnwfthKngQ8Gyp5aapCFPjoeFrT0s/mNQroTNDKqO7fa1Jf90DM0exmauY9Rwk7Y8PaF/zWhmVKMO0998NyczeB/SXYsLiPWAl8AgN6yQt8fNDOz8V/1CDl+6oLrZPaqWQc2EgzR8rQUeNNNntvNavyOnAtVsAXGqaj9gCwCFYcBNQOt2lAK6xtxcXx7FTbsSPWo7LgAAyTd5oIWNSwfp8yJgHLjhKmFFYZ25cmYnPDzCL8/tw7DKPDINVtqzCgK7hR4QFe+V6K3wsJwIkg5ZGHZpyZhw2woV1NRvfzTZjV3qgZ7NWCVXkdyLU2wsC5NwAE+g92SdBOcaUELfIqwCK/QSZosVLmEe46L8vW0eY0BSNCqlvu0tAMl7ZL2BuA5TW05OKm4UlOob9DN6y9E9+tp/jF8rqDPgh55TLez7/VWpS+kk9rUOVxyhJCzQAX8uAWMtJgu4KerNRf2w0MhAGDZqM7BjVqIozd5YZ1glZAGrRwNQEoCPdvMogTB1o86IFf6ULhsR44vl1rWP0FWK1447bw64eeGU6+nZe+s992TA6+HT86tGCcdF0iH2wMvIrSosr5ywHKDNMb9HGJl8h0NVerFD6g7yxY6Z//+vsaMBt5Dzw2QQ0PqUXw1VqWvqp4PnBp0OI1TGHQ4rqwLJZY5LLL5MNvJtD0BFHD+m+4znQJvwH+7hrdudPlwXAz4ZKI4eQj/85LX5r2IOrGo6gMXCLj9wFDIKWBKqxFUZsGysW8fDgMur07HLyHyeVrB8fEGXDe5hdiwL182QvX55owCjMT67YiRgC5PixEBC1HG1s1tgH7NWDpSqujEbRIBWxBkpENMOIvJrMO7oErAevLcCzrghTp7QMe2rBI/+ddqv5l2vvDHQd3CNyecGPhhsIl0YkIxL718gYcD8l4BO5uOHaBe1IGSK5XCb959i4UGesw3UnISf/wePTrSOXbVNYdr4hx/n4oDkd1i2+GQkrj/jbPc2D/TRbYQJFNM6YQ7POPPTFwvEDtk571J4KWqqIviQjQMmUUgBc9faVVV2KPj8dxsWI/KR867M9m1B68J4B8Be79KdN8GnyXwt2SwD8BYe+DOxkOI6XCrz6Nv1352EErUV1CGqupWd4Mxwb5GtzOQV999WJoWO9AYfEjZ7xaUg5SSe0qOayUDtJGvSxmLpV9x2O0mEd5DWzqSmXb9SQ27b56aa2fiqZXjyPasewBr8hxGR9v1AurKqm7eTGgFaVtle2oAFuHk9mIQycIEL1F1Fz+2088DWBRw/omHBtRWMOaCr+z4AhUvG+CM6WCx04T69wQ3xEEoT3IJ+EIWD+HWwFX2+S690PDmo+u2njUFVUz/ALHAVG0v9c1jH5XtV7QHSrZ4r6ydCm6nla76m7Fixb0zuY7ON8gOWc6miu/+h7p+VC8kiipQFoELdMpDu+Ptmnpq576QFtVpsiv4yp54d4XjRi9casBK60Nay4KYdqwaCc5F47a1kVwe8PRL5AA7nuCmB7TZfrMh/kxX/rVLs2e9E/UiiXopvH35DsQjKIAKdqfIJUIVH562PQayR4k7U21LY8++qV6uvL1UbF7MhuMAhaG0PA7CvaqaFXbBC5KLOwC4IooF0GL5BYyMKxvRwV/Xpqbza9xRKQe8SJgXQbXGcD6Mvi/CHcd3HfguFwHAw99QsyH+THf38IdCFebxC5ZJvswBmS24Ic1eycanPTVK78GJ32Neitq8vqfCke9dDBBtCjTpL4R9jG7/MaC1bWPomtWGA9j+SDYSzkKA2jyXVSlMoFLhwfglaBtcSV/MbNOCtte0NH64Mq8/hsuLWDtB95L4djta4LrD2K+HKW8Ae40OI661R7lWh5BfVkBzYcfo3Jw0qVNC04EqUhSH88RUsjMluaX++qjEVmSWvC0YDURM5IdZ5KamhD+RTRo6WtFOJR5/U+HmcCl96tSy2py+EoWXpEPvwPHvvcpdUbDIjAAtNWi3T4tZCgzNt694a6G+zxc7XWDLpm2EfXmSeBUG8pXDqhRIKW1Jn1FpEjScXkl0eaZkbnSirWqA5xMFXZgimLLGixcHgFDbwFdwCrYTdAiBQdhGiIjaGkyv5QErDxU+Gxxq7itL2qWPr5Sw/qSn2cao3unizdx4kQZOXKk1NdjN2C8MkXU3t4uGzdulNWrV3c6PT/CKFy/AscrBwEwOFFD5GapXR2HEk2B47qHSg3JrAtxRVfxKqOq9Lj8xpU5mKjMj0htvX/c+/SS/8AGKy5E/f1Do6DJD4VJgLsflABHC7wYUQE1aGkeXk0AKwMuLFbOsSJn1krdsavMKH18vwz50YZF6jZgjRkzRo466ig57rjjZN9995UJEybIiBEjsAa3BPhFTNPYtGmTvPbaa/LUU0/J3XffLffff7+sXbvWK0W6v1yLdyEcPiZyBRy3a6kNesvYpfK3VSukmJ2MAuHwW6P+RIIUAIl1jnwBsEWAlH471imONjoyRhqcqdLsvibN/rQazTOArgmSGgBS4MLl0R0HoHt2IipFa6o3jgIvM6IJWsqfM50z6AJiB9APHvGAydpP95ylT23l1K7kf8ABB8gZZ5whJ5xwglCbyuVyypkgFU6XoJXHyT101LJuv/12+dWvfiWPPfZYmDXpmb8P7W/sGrLrVRvUvOrD+BCdDkCh5kNAjSAfpMAUSRV1poKLk24B1C1/kuYZ6eppRRI7v8fA1qxGtmPju8IY7ztnzCYPvnoRP3BY+wqDl6l1qUoITcPB5nqDYK+qDWKXkGDFxkVDdirafffd5bOf/ay8973vldGjRyuAShURTAQydg/pZs2aJZ/85CexI84C+eMf/yhXXXWVvPjii2mS4iTUi+HYp+RoYa3QYvy+G6ExDYF2bYBVGKA6CVR6vJgDM962NDOlrUgj+4AFq5LO3vM/PacDTIebCTcLbnc4Ls2oHWooAqwzWLycNSoZiufNgiFklVxcqQle2oV5OFvdwTrDIirz64PXhIP78Zm/zbQ0+VNzOu200+Tmm29WIDNu3LhOAVVUHkyT6RC0mC7Tp18KGg0eGtwPT8HbRywdzyIjHJIKQ3hQW1T3DehkABQ/XFGOoBTlVOmxnItTXrgW0cnsLk2DB/SIYKoa0olf/QDwngh3GNxUOBpGCYj81fiTbIVbCbcY7la4f8Bth+sf2t46SLKNIzBtAWUzKlZUaQhcYQprYKbWRY3L4XHkWGvotq+Vcw7rCEfvp2faV86B4zSFRBo1apRcdNFFcu6558rQodWW/yUmFRnItjt37ly55pprlN3ryiuvlA0bNkTyGp4sN8v/Ctwqw79/btktu3wNtj8u7o/fGiPLRldQadZ+sVj7I0mvL40M1J4FpD9e2l1qlwOWYE/pEXo3UqEtgSNOx8DRLqIXuHJpBYeeeSV4TYebD8e5PO+C4w+wFK4dru+ouTkjE2ZiFDCzL1R45lsJRvQ1KxyfTSK+aRdGO+WPtV3ZzA5MIHxK/vCLN8yo/XhP4zpniyf+9pMmTZJvfOMbct5550ljY++2kYaGBjnssMOERvtHH31Utm7lNy2R9kYou7OdMnolptidwGM+PxK1Z38s1RqM+oJPmK9FMU2CVFCzCEyc3Gm6VBlTK0M/Wv4pYw55VZb+IUgxVexdhKm73cA5kMOf4G6EOxaOn98GODYENtcw0Y951sERvDhLmSM898ERuPqO3vIWLBJtGAagQnkTRlhog9JOl860S2k/s8uo7xlWKOyQbfla6QLOQ4k+BFfPosXR2LFj5bLLLpOPfexjZaN7cfw94U+7FvNjvsy/CrH8fA++T/9TR/tLAJPNqCdYqI7imE6VjiCVRoMCyCni1XQwJXDEWpyJMn7/nu4NeVnuBH+7A1bUjO6EOxmOn97ELzXCo4g/ThPcAXD/A/dVuL6htWvx7nnmjTJwSYy/LCYpdxO09H0UcOk0MgBBJ7tVVhRqYX4MGzi76Efp4kVdBw0apLSps88+Oyq41/2YL7U5lqMK8T34PonAWyWNngnePHkFOn/roUGhHmlgMq/hbDQo0d8EJf0c4udxcDwOrOAOkxmzutNmQwnvXI9dffFz8Zq/gpsI19U0EDUggtZwuAvhfgFH7ax3aWMTRgKLu6GyGMZ1DVrmNUUxTODS4OUWIRecXJPF3lXNx+RTpNLbLLORwfHVMnnf+94nn/70p9E2+JP0PTFf5s9ypCC+D9+rf+mHmMXuOCugWeF35iEgURQFSimFzG2GuG41k5khWzb1ftuIKn4N+MUINrFkH0DoVXC9sQSCn1Om/3243qWRQ2AOx5fKZReQeGVgVlnOJnCF78sYSw8asIpYa5gvbi4F9Ovdocj9yKQSHHjggULNhpM7+5OYP8vB8lQhvg/fq/+pUFgDoOIgCiaHslmZ4FQVlPhlCLmK+JwhP0HaWmlCGZDUGbCiMN8M91O43kR3ds1Oh+Ocml6kfFYZRHPQfrSNySnAOOq7AMAIYnRRFAYvPhtUxGTQXKYWZlxPRqmOgIv9vQcPHqy0mcMPP9x4gf67ZTmoXbFcCcT34Xvx/fqXskVMX3BboE3zIxinlvqApMDLuPdvy/Aq9Dr8qLqYye6km+MRir1LPMZW3oi3o0H8B3DDIsJ62os19DNwB/d0wkF6uUENMITCxQBRAGCoIureADICWgWYaVAzAMzBBL6O4pYgz/672R1ZH5KU/SGHHCLvec97klj6PIzlYbmqEBn4fv1LbnYNaoqehgP00ZoREUjfa1BiUc17v+h+TdM1ruxK072LQan6tp6fQ9K/kkude9qRBUr243CpwGPYsGHytre9TS3JmDJlCqaIFGXLli1qbRiXWqxcuTJNAWFPUssremGUEF++/KONkmnDVzDPKtJ5IoBFkVsopeZiOkY2XwtgxVGzPaKKSz9OTTj22GNlzz33jGPpF3+Wh+V66KGHpLU1duI234vvd3+/FFJnmsWpN0VoVrQvKcVJB5Sqg/LpWm2D3R7WCieDLqAawWYe0fVPZ7sLXtOC1Ri8+6fSvP+pp54qX/ziF2XvvfeGPClTtGpvHpP6cr/22mvy85//XK644gppa2tLSpKji1Tx3wnHCaQ9R82XO9Lw9npp45FYWX6xkn/4sr3VqxRDg1gRL51zWsVdi65BvxJ/uzlJJSAocJ5TLRLLxfItXrw4qXh8P77n2iSmXg1bPW6jjF+zTeXRVUBKKqAaEcQ0m3x+CE4KYI8opkuQlMjOHcaXrkb8NJwANyOJMZvNyqWXXio33HCDmpXMZ86dIVjxSsclFdS0CGa/+93vZPhwDgAmEg3upydydCVwzhxHWtRs4Kz6YlVLQ29RnObKtIDR2BUUn8JsSyePha9Wkq6Ec9JSrFbFBOfMmZPGmN2VvLsdh0Z2lq8K8f2qTs6qkkb3gq+DcZ1zrbg+kL9/HDFM/wvzaP/oK7l5RsBQeWu87TGc5K70nEazIqAljiMTmM466yz5+te/nko2XND6zne+U6699lqhJpZAUHvVaM84XF9P4Otc0IIFBXmitV1WPZ3H96kDSOprVsCXcD0oppnMF8peITTWGzY01MJI4EiUbmqohMFjU1OTzJs3T9h1r0ViuVg+riFsaYlVUqeh7DQb9C8VM9izDPbMDOZEedNDk8tDUOocYSJzsQ7nAHU2XudyqVHuNGA1AWXfP678bJdckf+1r30tjiXSv66uTk466SQ588wz5frrr4/k8T3H40oGGrrSaIJ+tIRLXX1GPv723WT+oZPQF80ncDKo8xUDMlF7+b2wZD3if7BLaTDn7hO7CjPhpsclxSUuM2bMiAuuCX+Wj+VcsWJFXHk436//wSrr7MB8KBgVUAE6a1IKdx1pTqCfNivAmIKBxgZs+Q4D+8s90w7ipFmj/tXAig11OtykuPJTq/rIRz4iu+3W+bpCwy41st/+9rdqV8mYPDhDuepkxpi40d40Vm4GjqzF1Jhku1l0/Gq+nGdTAAau6zllsFqWVcL5O0YSFytz47xaJpaP5UwAK44e9+/kMAqw0LEDXX92A7FdKv52h3R8fVVrDpEmrCuyOde9tLtTrn6MmwahqWLHEgGHGlJXiHYsrrrfb7/9qkXnj9OzrogRQc6HiXPMzwwz8/fm0ZSXR/OafLVzHytfTsBMsRYvNn5fBLB8KSaqsrtb7ePby8XFmJDLeVZdMB2kKZmqY72Udpr8+5knDVhB7YwmdgHHjx+vdoyM5qjuy+4gAavmyB/BDMrFZ+3oqe/1VTMGz+DfCYiaMW2ItUwsH8tZhSjw/he61nnYgav2T79QNT6G88On/hlTY3T8AXJN8yWiih1LHOFLUZFi4xPwar2xxBY+KUA1nf5vO0lF1GF6aol+rrVrrZcvkBfBBEuOYWBPY15nNA/a0lQTDYJpeIMC7Vo3acBqe9Irc1/tAg+G6SKxIvIUlP4hhSi9kDXSpYEVdXZnIH4waplqvXyB7NTaddhDaWIIKCxcqt6adJjpxzDTn/fhcB1/YF3TdANjd0Ij0KxZs6Y7Ry1JR0eHLFmyZBeTOuojqyRscrVO/ND038cinXRYvhQfRAKEARLp0u49LoKMBh0zF+1vhpl+YX/GhR8N7crYXrU7bGa2S92naU2vJL0xl0HccsstSSyxYVyGQ6B68sknY3n8ADb9nnNE2Y52VwrFdGmSXzuWQ9+b17A/q1auLl36Pflu0WnFypdHZb3xxhux4bUQwPKxnFWIe4ZVm4ZSJYnuBuMo+Qy0Kg9vTPDU97ySwlfPN81fdjMHKFXrBrKxvQz3Klzk9AV+8X7961/LOeec0+npCwQ6Lr2p8mVnH/FuuJVwaXDpyF8AADnlSURBVMAVbFUIVgVsKj5Cdhs7WfIdfMeeJU5dcAGE27ayAa2C668KpudZHYUyRFrRuec5l0DVMrF8VfZmp6miKpr1wTtyyyG0KVap4CcPbvz89XP4WqV4CgHRx8R60+FYzzoAqRpYUSSsyY/DRYIVlYuXXnpJvvSlL8lPf8rdY9IRu3/UyKpMCGVimAwlZ8L13KQl2th+e+8MWbXsJMkXilJXxw35vakKzDG8SNSbqsCQStK85OE9Z8PTyELBZHIvyN/uuKsyUp/6HIHcfgEXuUqZB44uX768TwvU2cxYvioHo65Gmus6m26P8xexrTdWlvlApcGoDLn8PDsPNjTeu2476hbMMjsIWgOO0oAVBXMTXOzuB9SuqCHxPLnLL79cjQ4mGUWpSd12221KG6si8Q6E/wOu54CKGfKwiGVP4ccvwACQyUp7W3U5EHxI+sX0s/IM/SkCrGhaKBabGAOu85UzlGQ3HqndrYCLBCsuYeEiYe6KUYtLblguli9hqQ1F8wpc/4LVKVgUn31jOH7pLJzZWdOgxXJqivLTYdFXz2bF7Y3bZHVLf9an6PL1gW+abhUFczvc8qTyELB4Gsrpp5+u7FB8pk2KbZpXOo4ccnsYriHkmsDNmzcnJckwzAiWG6oxdTr8y1/27FUm4PA+yelMNI9+jrpm+NIEKadJmhdyfWN/Eg1SLyQVYOnSpepUmSSe/grjaTcsXxXi+/Wv4W33jUMAUphFz508VGlNQOK9dlVeJSaYp1M60Kxc2SITD2T3fsBRdY3CEwm33vgR3HerSYi7KVBr6oH9rPiDPAB3a7U8Ox3O7tqi+1tlSxbzLvJYyY5tYnqalGaFLT1mTOOk2vU9nXwn0uNvl9jan3/+ebVn1DHHHNOJZPuGlXtZsXxViO/H9+w/asqNg/1zEMCkROy6kUw/D7TK9W1ykUdzq1E/RvQJfQAAFXsBm3AQ06vSzB09Bh6lBSuK8mdw74c7uJqYqLrzaHC6bhDV+q90I35yVCh6St3rzvSCYLeGiKyU/cqpk/od/Q1WLBw3g6L2sQcfwsSBjnvuuUdOOeWUmtqAjyDFciVsvMdX4Xs9FX6nPn8utk/BQmMY2GH7jAYpFqkEW+rORynt6109yDJfQIEXDew4kgvD2GbQQLpP0w3U8tiGm/+C64udLzm68z24f8L1DnVkWtH/p6usHGaOBKQ4Z/KF71lpi4UGHHJKsOpvegkFeCSpEI888oj86U9/SmLp8zCWh+WqQg8jfFkVnt4PzuMwB1cfosIqFengyfqmHZlU/TOYeasja2/lxU3hNkpdw4DsAlICnQEr4j4rxifgErf4RHh3iJsW0U51RXcSqRo308jTQjDcneXugF0DpKRMYAHDlxCquzskia2PwlYhH3apY7sP27dvl5tuukkefPDBPipScjYsB8vDciUQ6yTfi1Nr+pmKU9BVa8DWwyyTRpnwlWVUaFReWJNNAZhm8wMAaJwSUXDXSFt7R3ncgfPUGbDSUrkRNxfCJdYizdzJ6w7wM/0LOhmv8+zrthaBU9jZMarydD650i6z/PDBOTCy1wGrnOKgrqTWC3E4qvr3pHRpzL7uuuvSTMBMSqbbYZwAynKwPFXofoTzA9q/dPa/6/B7T8UADeaysasWSxqoTHQy72Micu0WNt3j2YSFBtsNjJFSnPdPEHAGHOe3JP04CE5F/BpxaPAquI/B9abmhuRB7UMLUshuAZjoCuT5p/7rg5ICJp58A01KHePFKx0qbQFTIzLOSFm4BJW43+lZlGBRtVJQm7n66qvVwGg13t4I52Ar82c5UhDfh+/VvzR28mT84tgULDCAmgBk3lcrp8lr3GPbGcywAb0mg7ZZzaqaFCPCWZveBnczXCtcV/rSBCl2+x6D+xDcZXB9QyNfKuJAh61Q2zvKZsVU5G6AUgBMGpx8YKqI43t4WtsQado8Jo6lD/35Rb4NjtpILO3YsUN+/OMfK80mlqkXA6hRMX+WowrxPTilpv81jUxmNlToUVXKy2ADgCruk6Jzj6wd+IKsEZmeT2LclcO60g005bEUD++B+wDcPXBc9EytiC2cQBQm+lET49eBBnvq+RfDHQ33F7i+owULMBOqbRtGBLHRP1fJh0ApACYfkJS2FPlO8WVWtjDMtWrPj4tn6tOQxcjtf+ASGzjX4n31q1+VX/ziF2rAtC9KyHl4nFj8la98Jc1aRZaf71F1UWlflB0aOo5ywnma7K2ZgOTr2KoGVS9IApCpJTwbJdPwPKYtDFiwylWXYSqO/wUX3QFwJ8IdBjcVjl8b3QViBSNArYRjo7kVjnaU3rB9IdmqxGl2ACtohZniUFSoKHCtmkgig5pAit0rC8XRiXx9G0ht5Pdwpydl++qrr8pFF10k69atk3PPPRdLKXtvUHPr1q3yk5/8RK688spqawB1kVl+vkf/UzPsVB3rZkPracTUhbwPWJXlInCR+NesafwIViPOinecjVLsYA9mwFJPgZUWILtzdKSRcCPg6vgAojZFYOrfmcYsiaYOzLXKuFtQXfBV1J49eCUAcpvbnDNCFj7UJAsOa+nB1Lua1CpEvBZuHtx+SYlw8TDXfD711FPyhS98Qe3oWm2mR1J64TBiOWenf/Ob35Tf//73aoVDmCfimdoUy8/36H8qbNwL+1dhJDDj1SAeFhFFHHAhhaFJg1hUHI8fHE49QHCx1G2rhfoTV9Je9+9uNzCpgFyTthzued/xvnaACoWRIS0dmAeFMnnWS3r1GOllORn0DZzMYKlrG9djaXc/Ic5P+Dbc+mpJcYkUD/Q4+eST5ZprrpHXX389LajEJs00mQ7TY7pMn34piOVluVn+2qB8fj4KAptkGIVCxSOIRbkQW8WjsnsWcb5lhgMJVrOqENBA8dh2Ql7q/7Fesh1YvNiNlyYwxRFsMdDaBuHrOAEsL8ex9YM/B0gmwn0VrqFa/txZ47zzzpNf/vKX6jSjE088Ue29zy2tubU1D/+II70ulOtFV69erZZjcVuhFFMTzCRpC+Xcu1TDhGbEXrtvhtbctnZ//LaD8RvT6AmtSlckLQ8883DcOIrTxMivtDGcQciJ2Jn8KpkzfcCOBCpx8M+Apj/ej5nHxXejYqDB4jTdtJQEUDoNNdqMB05hyGZWyYhXbpVjzqylryO76RfDfR5Olxa31Ynn+B111FFy3HHHyb777quO8+IJNCZoEaQ4Z4r7UbEreffdd8v9999fbbuXqMz5u1CjIlhtimLoF7/L1s/Fb/td5D0LdYc22XhQiipgGjspj/US9zVpL54h3xm/PCqZgeLX0zarnU9uhQJGMDObYWwf738do9+hM+AUTkGdzJIZIRunTEUQu8W1Qmz4V8IRqC6A0/ZF3CYT95cy139OnDhRRo4cqQ7/oKho2+JWQBs3buzWttcoBbWJ78OxnLUDVCgMoOkwdPHHwi6p1aloe1UciJkTkglcfK4AMNiruBC9btAWZjmQyYLVkMkd0rZmNb6Qk1ARSmp2GnBizUmlj3CVPPa2cjJTEKOWwIpvQNvi5XAb4KhhcQS308TuHV0PE8tEjeqHcBycqR1qXt4IbedggMtQ/yNHoIrTrKJArJxXA5e+Bm9aRB/beUy2b6468SyIsove6I71Lvp6KV5r2+N56WiDkb3odQEJUtWAigClXYosUIeZJmSNr/DCRV0Cg1TZdJ2JQEBQ+DTcM3DlDQkefUzMn+VgeViu2gIqFEjahxwKKe0FUbENaXkRlPSMvPIr45STx0t+j/TV4MKe7hwEcZ0n5XuTa8l8YJSx724tWC1YAJDK4gvucIZwpTw0KJnXzvw+VOv5jwtci+4wrJpnV7AWiWD9W7jT4f4PrgWuP4j5Mn+Wg+VhuWqPivIW1JkxABIOznjnBRKyNGyFS8xOnnbhsHLAKoGYC3uVi11e64orwBKXcmVqu6hPZePcRV808bVa22G3ctdC3S6XBwGqK6QBildNtGtkYH9w3WkYDqs6+qaj9cP1UeR5Gtzn4BbDcRSuL4j5MD/my/xZjtqkS1btCc36IAzMNKKAJTDVYBS+ht9Ch2v/8LP2F9qrnH/hYzrgu4AUSXnjDIQ0wG5aRrdLXf0rsApngu5dV4BKg1Sc+LhoOouuYHvdnnEsNeLPbtdP4E6Co2GbXTL6aUMybnuEmB7TZfrMh/kx39rr9qFQJao/HhrVVNQX6lTev1Jg5Z0GI33VHHHPnj9qoIv91lyA1SgLVpBZRD9ZS3KAXRfePQknXZwMsMpB+0nfKE3tKUpk4c9BBsf2FtyVsmnlIjmzpqYxRJVe+3GO2PvgTobDol0ZDketoisDNJz9SfvLZrhn4W6G49yp1+Bqny7dNk4KrT/CZ34+6gnWlRrac1Tpk+qHjktw0vdBGli+I85ynJB0pnx95CuB9wC+6Upl2zXF1ZrfJIOc16E7TMMXk3Nm4impAupYYZDS/jxaPANbx5jps+D1tPau8SuBhCNyP4LbH+44uEPgqCGOgWM94rQH6qPmB5DdYHaTOMpKkFoLx9HQR+DuhnscrtRVxkPNk7vjXfj99gzs6gQaEsFGgY5pW8KrEYZMMuuOjstwfR+AlkNTwd8l79bWdA3zXfr43oKVFviU+jbZmFuGtjUtsf2YlU3HNa+RIFUya4C1gOqLr2Zmd+xz9bwsmJsMjGba/X9PYHnMdyzNaDgOGEz3ryNxJWCRj42UL86pESvgXvav63HdOemC5SMAUseg8NAsoVWpV/RfRYONvtJbnynps6iL2uEDd7oeKZ1KAxzE5sXHwmV3hzjZB+SlkdvM6AP53oKV/vWPOSYvf/n7Culw2T0ZCuctVtOVSvOFr5HgpJnKQAr4pJddoFIW2sdJ/eq9wPmU5t4JrwQeOmpIuz41DT0Jtqp9FEZ5K6xMrYkAXU4mcDFEaU1+FA1aTMzUvrz61gDQWgyof0b+0IlVFeW573JPiU1tl3vbai+04zXYUoor1aggK02XgYog5QOVub97kD8qYBbaVbY4R/7yF2ojlmpdApe+Pg714SSoPqNwpXZsAhVLz+ewK38rglcAYGCtWBcIP079dzLcwvgeGVSwXUBDghasDGFgvxIMnze+iKqIY7oqKqPHSYlpZ8ZV9wZI8TnQpExG2u7heFyFmx0t7fXzzFB7X6MSKGTeDXCZK9wFW08aJmCF/5UX3wSvUogJWvq+dMV0BZxA7tTdJ81jbRewJDU7dcGQheBY+aJ07FgnWRc7MURsGxML7REgVQZUPkARpDRx2Jun3+Rkhtxxxwztba81KIEvbpwGlecElGwYHMwD0H6KhjOLHA9eBK4wVfo50oR68Xdp2fpymHmgP8c2v4ErmI0tqI7QrrBTAklrUZGSqgZSTMAAKD6WEZb4OM4Q6XD2lYULUUkt1aQE8u77Ua65RieuHGTigIsvo8HLezHGM53Hof24dy13byi6f5Xhk7d4UexfLYHIJqgDB+R1wYJ2aSssx+6eOPmmEDEAoQGKV5+0XUo/q6vWpso8vYcMrLPK0eDOkaDceGkcuV8Ep/Xqbwl8YdOBKMIJGAUcBG0qj66gLlEYdDx/E7jM75QJWua9Tg3qFG5x/DzWAbqDHx/Ie62XRFJ+Z8GqXB7e04j2TQCTF2Bz8rSrgMcAKPp1FaSC9HDDI7vcAuwU+dlyy1/3MIPsfT9L4Gy3DlrOhwAju6Mk/PE9gCJgKdCqAlxBd9F4DwKVJhO0qFVhBh4S/rMMalqnWey1JAELViVZlO5OPLENB6A+h4qzFQ6ApbUpnyUSpBhmfkpLyak7alJRpE7wdfnFHoK1ZvvLwts4ydJSLUhgxIaT8fsfg6Jwwqv54xJwvJE9ZRjHY6LGpe1bTMW/x21ABK2Mwxnry3CO5QPQqgb8DguBbIwbC1aGMMpunZaN+DA+j8pT6gomgpRZl42UdJfP8Cq79XemwVIfIKKzG2bRHyD33sulLJb6UwJfXDcJkzJPxW+CzfWCfc48kCJQBaRuPX+tcZUDV8CJaKV4YdDiac6O83/S4K42IthbQwIWrAxhlN0G2hUOQuVuDASqCiJAdRGkwvtmsTuIoyzxhZ4qO9r3w/B4qWJX5Gs9el0CHZkz0AU8EM7LSgERbku1QM+ZMn8n3nuOuw15vNqP6Zj3fNaaViPyeVXaOu6w0xU8sUT9tWAVJRXtR+1KBN1BHjJpUgJIkS2uy6eT0PN09LO+qlX8Droc7hxsI7OPBSwtmD6+fm7TsThNBhNAHR70oZfVaKABSOFWfUt4VWXTYUZBfQYNcgQqE+hKwMW4mAQqf5Zc5iUjAXsbkoAFq5BAyh6pXeUy6Apq21UKkEoCqrA2pTOjRqXJwex2B/YLx9lfFi3iQmFLfSmB87eOgezPxIdiOhwXYBtAFNzqG1x9DYq/IO1XHr9fYj7SD/9VGLqBSuNS/ghCfVLrROUlaFY3ypVjYCO1FCcBC1ZxktH+28diF1Ge2Yaz2+KIABWnLek44XBKniBlApW2b6ljnbKDYYw9UP7v/2boJOy1DyTQUPgogOMIH3PYLfe0p9IMcyKNRhvcahUrAKUI0PLDVPG1xgU/FwejFtUxaL+TwWNe7YO326mzsGBV7efjrgh1bUthAH8Do3UcFSqRBhf6xEFZlDblSb2kTZVS9O4UsGGE0HGG41C+gzHDfUqYxT73ggQ+s/l4gMcCwAgPgajs/hFzSFqL8jQpeAT45d/g4v267Pp5rgzgmAjn1/G8wcxSKeZuwwig3WCPYkkgC1YJwgmCtmzZjA/oYhzc7C1gNUEqYIq4CWtTJZYSUOm0eCWVxVGANUKKxYPkllsmIcxvLaWE7F0PSeC/WqZC+B8HtEzFb91eAhk2kQgw0tmWwMj3UT8R/rDLp38uXDV4eYmRN+vlge5fftgqnZy9xkvAglW8bEohPFTCHfoS6hmcMZWhxFF+F6VNkYPSDnf7zJgmUOkuIm1Y3OAumz0UNqxpFrBMgfXQPSd/5jo+iVHfN+M3hiGJ0OIjjYuVywEgaeAienEaAsGIDhTweI/+X5/P52eSBC2Pdwjqwj1S594i33NaymLZh0gJWLCKFEuE50nzoaa7T6KObkVli+v0gSVi8mcJpLzvK5PXmpTOKipeCfTymKQ6Suoyh2CUcA+sI4zPX6dnr+klMGTLB/DD/Sd+O85v8/YxU18WY14UU9PAVUrZRyuDLxq0dAyP38Xon4v91cX9pXxtlNWqtHSqXC1YVRFQWfDqZW8ANLBZHvZRV1/WstA4oPK+pSZrElBpjcoEL8WPLmEeR3k5zkEybNhsTBwNTacwM7D3qSXw2c0HgfcsgMc4/Kal7h9BR5HSoPx7P9VIQNKaVoinglclNRhfqzskX/cofs/SB8yPai/RErBgFS2XaN9zzumQrRuwh3h2dZmxvaQBleJ52lTpWd8lAZXmqQAqBLhqUmoek1Ob0LD2l3zLvrBjDdJR7LULErhg+wRoyRcg5lwFVF4SJWBSgKUfE0BL8ammBOYAtHhfKlQAWjhey3E2YqH8/8h3hnKXVUspJWDBKqWgArZTTsFuDNiHPJPdjgEd6EER3T6cjwN+7YKoZV2/MMDFalRMyZ8978UBYGFpRt7dTxqyB6FbiIM2A0tuKS97lyyBM3D8uxTOx690HMxTmKLASU+aDHlStpGgRVAyKOgiBqDFQB+8DNRyXX5gboZ73GpVFFF6smCVXlYeJ9X2wdkVOE7rSYzSsetXLkMClVHtVSRqU6ZGFQY4AhXJ9Nf8JlCRxwM1alhsYDPxhT5Ubr11hlx7bfm0CvJaipfAyJEfBoRwnyrfTgXwCUBJ4RD/wPnApUGrrNOmtS0DuALQMrP2k+KMeJEXMH/uBvnWCK6OsNQJCZQ3tE5EHNCsPFxit0FPA5ReRHXOKVssBRIHVKawTECifxqg0vE1L8cHXSClk+EM61EArPkyY/JcuXfhEM1qrwkSOH/b29GVPxvgtBvwCFtZK3BCBGIT/nBL60C5UmEMKDHpLl3c1tfMWvMoAKSHg0ERJuFcK+3Dn6aPpc5JwIJV5+RV4j7ssBYZ1vBveLwOjahOgU6URlWKgQpsdBk9Dam6RsX4jKeBykwDAfhPwMJpKNgfvL3xYLn3tsmyZAn2x7IUKYFPbdgX21ZfCLlxKRMN6iAFRApJVBxPUSJgecDlgQyDTNDysEd5qSCERWhaDPIAC0Z19x4p5G+THxIgLXVWAhasOisxk//oo9fjg/kveG1Hl7B8dE534zS/CTIaeBhm+ge8xg4PZnhwT/BiNzAAv4J6duonSd45WNas3AdzskbJwlPsFActU14/tXaiZHMX4Y7zqQjy7EoTpEwKARIfwcMtXQJMM0DLsxd6XciytDRwqaQb8VutRTo/k+GjeWCspS5IwIJVF4QWRKH9asdxrwAoHofjAmRsJUMAYT/NoBKoGJ64rfCPiUdwC3h9oNIp0Z/AVeSOo9CyCsVG6SjMRhkOlhHv3x1LdfBFr2iQOvbAuV60dqhkGj6D3+h4/6UhbF8ZogZFoCEYlQGSITcEgeJBy0/US4d8TE9F4QcDLvtraWn/B5bVhPVvHdNeq0jA+wmqMNngKhLgYQ9Dhh+Kir435mBByzEqZAAyRhpl4AN/UwuLMqgzqkrH16S0VqWBSoWzaSBc55fLobEUO9DleV1aWlZJbsg6efvbccrvAJzXwxnqg1s+DXl8BvIZDnFhQiaoVPsVrCi/0h/KszpPuTjD6fB5KNzfpK5wnlwxakUpeXvXWQlYzaqzEoviX7CgBbPLH0XlfgXBNKRio9qybpoexfNsTxpQmFYaoDLz1EBl+rEzo4GK4dwXi0DFcuSdiVI3aD8pts+Te26bismkQ3Dk2AD63aEqNWz/ALrp50AeI+BoUCdMeZqPBy/esylThvM/wz3HB/IZxEftrYJKHuqjgGkKLs8AzP5ImkbameqG5LpyqyTclYg2ToQEOOcpmz0cXYCJwA7aRDxKslFpsErUqJiM393TQKevTkbNn1AZ0S+XY3fQBy80Fd4zDxez7p26duloX49t5V9De90oY8e2yPz5pXJ6pd21/p6//Z2YD/c1gMpekCHX4JVZltSzQiPclVqDB2GBJPhIFcr39vjKeRSLnzbFz4+W43J8+EoZPvxqu6tCIMwu35R+ni4nYSOWSWDRogkwxh6Oio+9uwFYPQlUzIjgo8AI99SiMgCrAswvCpR8bY7dUGpbGqiKmOaQqfNtJVj65mLKQwFrHOuK66XQhiPKt22XzY2twgXbuxKdu+UIHFb7DQDzfLw0u34aYLxree2Hnx+sunbl/TtDLAZf4OtHVM+4Z8Lsbrp/FBcG/e8Ptkb1QFRdvyn/ubqejo1pSuB/sf9UgxyOuj8SWo2nuWiA0Xyd0agYR3f/dDrqma3L+4wrYKJWlQEwEbyocZFXOYCXflbAxWd0hXivFtTmtkguv0naAGCjRrVKW1uHcC7Zzkz/1TZPivlvATeOhpTacSWih9/I8whaAR8NDUpze+FmZP/ev6hwPy67f66L+W7uMmjYn5AfDH9EJ2Ov3ZNA8DN1Lxkbu0wCHM6+++4Z0tFxCEAGdhI0FuBCQGGgYkAAQn6L0s8IUECleegfBVQazEytirarPPmRuQYr3hfhn0PjLQLQOhCehWNjdnOtUu9yGdF2KdS3oEvbJmPXtssShJ1yCgHObLDB69TczdmtM3FKzNdRrndBsOwmG8CLV/DsSeFih7qHGrSMV/bH90IRwaB5EMfBUigXOzc4crEMX/lbacbmjZZ6RAIWrHpEjBGJELD+8pdZkms4RIod2LtIzTYvGdS1jYpRNTDpLqN+jgIq8ptgpcGL/g4RkQZ2NY0B0xmgaQGtFCjVAaA8TYqtFSOWBd+2lWPDAnABsNys163kHlpFGOgdGKPzedp52qQO9q5iMS/19QUZOrQgBx5YlMsvd2GsN1AYnM1YfjTnDw7ADeVAnn1Nn9kxSTqcy/FOCyA+HhwKsFCGcY0oXokCwCrz9h7KWwX8DJ5owGKa5MPAhduE9/6pyOZvyPemYEtsSz0lgfKfpadStel4EmBjWbRoDzzsD8chcy5CBigAUDRpYKoGVOTXwIQU+BA8B2EAB4aRj+BErYk2LWpT9KNGRcCillUEWNXVcW4YgAn3BTgHQOQdWFGQLP2y0MzyRWkED7WTFjgXrqGhQxq3w1i/oUPWDnawZQ0aaCu26M02Sj6L2fzYWzyLuB0d7djUDjP967bJISds63Xw4mEPbvYygPFHIBKslXS9meIlhbAkd8qMpMCn0tvz91j8v5R5mUcEzzAw3CdthXPlmhEvlTPbp+5KwIJVdyVYPT41rBnSkNsf2sto2DEICJ7G0WWgYqYGWCkQI1BBM3KhSSlAZDj8MvBTdiq/+6eBSoEUgYygRAADcNUDlGB6V8DVgPsMXDsceXMALT5nMfm10NEh21CEeneouPU4QTqPE2EyOFE6gxEwNS0A080IkEjfKbIbhJ0qnDUYqVwjDzywsUIb4+t0l87egP3qGy8FgGBrYp4OBKDiZE/KiRTUdPUYQh0VbvgZt0Sosrj80DA8zIP91MVdjrwvlOGD77KTPyn0nqXgZ+jZZG1qFRK4997J0tF6AABrHDQQdrM8wIrSqBhZ26B4H4AaR/vYSgygYrgCP/hB75Ec0s2CT2tVSqOCH21ZCkBU4+XyHAAJwKdAQEM4u4JKq4J2RS0r0+E9U7NyGsHfXpCmhrxsyXdAs8IWNfnJ0NSmwiQ0AvEYG0CGElB7U2WEMpbFlDNOmXAznNeFcGcDOF6StbnlcuYx3sRMlr+7dP76YVIYhNnp7nlIChostgmuqNkpQYtlida2DNBSBdZoxd+jAXHQTXYvkdahv5br1FIexWT/9JwEBtDkwJ4TWpdSOuaYVZg+8AiAahWwBg0YTgNVOEEClaY4oDLDaSBX9ia/Qao4uAdeBEBHP2pZdf4UBj7T7JzDVWlkvMJBacK+4AC9Oq8MdbjW41ji+npXWlsAOPkh0tqxL9I+APzjFUQp2xiAiXClJsVCw0Jm2EYnC/DCBFkAGP0L7gQAynwZi724vGVA8O4mne4OFnfQ+dAmAVQ4DUgytLEBbrB3ehlRy4LjWymngvknxKfC4cemURbEuF58L0DHRXcT7+q6v5btm/9kgQpi6yUq+zV6KQ+brCmBu+4aDUB4ExrXNNWuuTxHgQuZABIaqLQfr4FB3efRfnzURvU4rUrZqwB+SpODJkUNi1oVn2mrorGdo4LsAiq7FSBHXfFMfYldP6cJftswZww2qfa6ueCfiXxRd7Lt4PBAzgMkNGdqVihzFLF7WsTp1uQpOs9IZtjjova2j2JO4deMPdPXtp2L/D6HsqIrKjsUEAVR+XoG8Af+vPHLWLJnKc8yFj4EhviKYEIX2w+W07i3Qpafkx+OeJFclnpHAhasekeuyak+8MBQ2bFlHoBgBrQNb6hbN55w9y8ALzZDNDANBJqPAMAJn7RVKRADEHC6ArUlAhnBSXUJ2dUjSAGgaFgnWOkuIP1oXFe6Ee8BUAqkCGDoBhbQ9cvXQdVo2Btx9kE4minmjzE/gpUGKA1YHEBgueKIEycIko48KsPkiS7N6foMRt3aOz4O49hnkQ1WDAg0KmTJGs2ctQ5UKgPBJURGGVWYKnJ8uYM0Az7siS84RCRzgXx/0IOhxO1jD0vAdgN7WKCpkjviiK3y6uuPwpi9GFrMFrQudJsAABqYwokAesq8TKACKiANJIErbVXs2rG7R7Bg9xBooq4EFhfduSzC9L3uAhbhl0UYn9UUBnT9inhuw2BaAfc5jOw59ZiZn90LJWnEIAHHNXPQsNDNoyP44Eq/Qo7v4vnRP8rxZbxj0+fK1vYpfOwUEaja2s5GWT+H9CejTLR/AW7wX0tK6z2lhAE1MV1D8qh4RCx2F5lQBDFNBXlUx3hAqbMSEa+UV5sejuC2Xj0sgegfpYczscnFSIBzsRb97zQAwWx8ncd5XGp6gNfkFCjp5kewgQuACsAED4T6/gzjukD+6yCfr1Gxy2VoVaoLiDBzFJD31KzY/eMoILUpald5gFQW0w9aubnfoPkAK2w942LDOqRJLapQQNPFVZfB8dclJmlVpigch0dSLZZ8/QOyAJsZpiECVWvLOQDnzwI6JiIKjemevLz4/j0updpthBNpIbtSmJ8r5KcpCFNeJX+Ge3k14W47Hr6CaVXX2c30tOB694ovoqV+k4A3I/xlzMWCdpWfDTvONIABTz8JLS42GlJQWPbafMWYAEYtCgN4HphBU0KvUPkRSqhpqVU/aIVKqwIvtakGgAsBp5hDODUrOAz6SR7pNiL5Ojxn2tG6h+8G4JqMcnFIgCcJ8wrAYjzeYRIqQcvBqB81M+ZZjYgZyBF/psNe9gKeXq4WRRRQtWH3hMznwAug4pHryI+5BQCj76D9IEiRZ1vyH5TMNLwZoKU0KrD76TGi8lITSlUySBlvxtNpeHWvk0Gtv5ErBtldPz3p9Ppf2w3sdRGnyOD44zdIAVvMONnFaCBYWKyM0GxQaGB+i9NaFZMjOFE7UP8YDoBRE01xX0A/UAMS/cx7Ahq7gQ1wJEKiC8BhF5BE0MrBDYJGxW4gNatiY1Y6MmORH46xR3VR3T7uJ455Cfq+iHs3k/O6huwK8h48Sa7IriLSczOjUXxfq1SliP5z9upB0tL2CYDF5+AIVL4m5nfbCDveW+j4gC8iGAFaeZXgTHMwsCIe0/OBi/EMrIIsMfIn9QDkm7Dv/U+wP9XmUlL2rrclEPUD9naeNv04CbBbePvtkzDvaQ8A1zgYw6n5YjkMtBYFUHhSoEWA8sFKdcPw7IGZZ1zn7HU+6+6fWi/oP9NPjwgGo37o8rF7yOcMoCPPbmEDJiJgtK8Vc4ha6rCLRG4fNGJMtGRebP7KbuPpR7Dks2AKMBVAQltLSw40lWzm37Ixe6+cw1OvI4gaVUvHJ5CHr1Fh1M8kBVNlWRoak2JEoBEehjUvrXAc7ctXRWQAmIMFym7xDiz1/IL8aBQOu7XUlxKw3cC+lHa1vLxu4Sq5+ebN6IZNA1hMBeCMUF9/glYYqPhMnChAQ2FXj6pSPUCsA34ZggmImhbtyqqrCB7mUWAYNCfG5zwqGuhhmsJkT08zq4N2peZgISEn24D+IGenY28m2NPY0IvIQ4EToC2LAsCyBT8PuFSZGJ6WYLdqx0TOke3seJogxA+pK+cCILblP4F8sMsnNCqHe1IpdaeUB2GmbIqBKqUJPtSWfH4WnfyqfKU0wAAggifLDoHpKQ+KT2laXEqDET9sOWOBSgmvr/9YsOpriafJ7+STt6JBLZG771qLbU6mQdOaiCUxTdBAiDy0CHlAQwAKAAxB7OJxUmcWAERlQIXBj8DFbh2faZtCdHHBQ+sTu4LAKqkHQAGv4OcTTDEEpUI9FgM7DQA4dIEczFBnGvxHcML/Aq7qkFDOVOeoIcKYXlrKIN1CoREanFEXCUYo8yc3jZR8+6dRfsylwv5g3I4YRaeSgxdQf4JsFDQxGjnIpO7UDe68Z+/ihTNEQ5YfAUDk87F7agCWYFmRgykWbvFr8qPBD6lk7J8+l4D6dfo8V5thdQmw0b31ra/LlilPQKl6EprFajRSoEMONqGC1/yICpyuQJCiZkVtKIuZ5vTXQKXsUQwA0Y92qxx41bQFABTDGZ9ARQN7ESBGYKPGpQinemEnd8wHgx0KtinaowqwqWG2FjLDM+8xbaGActEvD+fCL60jfyaHeogtoAICUJ3hjpDCYHT7sNbOoc3M3zfdhyNeQPijQCuICanBj2E6HDd8E/9t/ACPp8KvlIwCLrW7DLt+sgLu6/LDwX9FuqVYJru973UJGF+zXs/LZtAVCSxQ+yEtxzHx66UuOwk7e04CaA1Htw46EPp4eQCT0rCoZXEIEHim51wVADrEKU4lIFBRI+nAT54hKOGeu9a4ALccpyD4PEU0RmpXHOMaBj4uWC5iFJAGcW8+GDzQdJVBHwkqPY9bozB//x/Bj/a3aqTKhPfowDyzAnZq0HTutvFYe3ghgAGLkjPDYLtr87BHMygAwrsiSpyWpSCKSSps8dJm+dSd/oN3xWsr8ji8v+r9yMvFybIej9/BYcp/wbPP7EWxf/tWAhas+lbeXc/txBO3oGFtxaZ+b0gmPx57No1Dc2L3BDsdAGz0NjAEAP5jd41E4FAABOCh9lWACqW6gP6UBUxOR3olexVVrCJsV/UAviLBD+RmAUYAKwfAAiz0gQ8GeQAMtrjygIoNH47Ge3opEME1ibyeHLQwpJtr8YDiE9iPqlB/KaKdAYcDF4qATQQR/DwdSadIfr4pCLeOl5gOhL+XXpQty4/iRVQx/HQMHwdrDkW2IuHvS8v238gvBxO+LfWjBCxY9aPwO52192XHgQ/uRoDWGsydGgvw4B5OQ7FtC37LrDdy6Nml0AABUGzNtGERsAhM7AIWaKgC/rALWM9nMAGjsE0M98HytDHOCUcPUBG1KjeL9HGQK8FKaVE+KDpY6qO0MnizyReoYSEMyVcllRZsVlxnuMdT29H1m/7/27u2GMmqKrpvPfox086LmYkg0QmPxB8Tg6P//vphTIyJ8sUXaOKHRj9MDMMISIaEgMrD6QGHhzEYJkKCkOgHBAMmPlCCJviBoqgE6GGYcXqmu+mq6nKtfe65Vfd2V01VT/d0PdZJ9617nvfcdapW9tlnn30gRR0C0X0ZVAPDSxBVoEs0RcJyAsK1PTGWcO7yS+65rFMkrEhyTmexHhv1dlkDh5ImROB+dOGoHd8H0lLYagREVls9Aut5vuuuMD1pHj5tLx18B8v6e/Fj3gddEzbVglSoiAc9hW02JCOIOvTSQkPQCiQf/nhJKpxCkrgoOJGtqKeqg8CqU/jEV8NXDZHl00DYTyVcEURd/ocfPD59ikiaQkDbnu+5TOgeWKdE7xNYjnz68wehvboBbVwPqRDPcsd5Tico5a2njQX5qiVlhTLeA9wGCYtFW3UywsqS2+ogLUiBJDX0H6YaSMHnT2xl+l47On2atRS2HgGR1daPwfp7kBymbHIaP6wzsM/C+XTJHrhy2QOF/AxWBbFBGged0sMnNzWXMe3Dn9WgF6fOikr4CvRVXCmMVuxZTzDjqaLONKaB0Nj4NLBJI07olvw8RBBBIIdAUtH4FC07WbFXvUhWoEHwW83e3Xudze+8Hg/6NN4FujE47KPjvEAp7FW8SwmIr4U0t39itgeWQX/w4aXXmBY6wXmmF8UlRPgWzHOiohSZPIZ+3WNHkzlvWZeBQEBkNRDDcJGdCNNDbNmBR86XX56zM2/hqHQqphN8lqfh0TPomiq0k8IUrYFVQBqBYpuf1VJ9VQnE9AF4gvomnBPBhT4PpTr0UlSAM4FEguASCEjOp3HpD50Ke/cM6tND50Iv2+kClT2kqsTevexKm9vzKbR/OUgK5AURzz18omJLNoq0QnJppTqh4XmtEPKZ0knxzrIZabVVhTyJOtgD2fw5enbEZqffbDWru0FAQGQ1CKOwkX046FbgC/bEE+/ZvhnofRYgZWF6mJRnMA3EVhHonRJsACxhykddFbfX0FSBgXsBqbeqgIgWwERcCazjV7/COaSbI0DqYEGPsx4jqIMppd9yGoX7boGK8lKTTy7ZO3s+aid3f9KWJzCNRRopjjIO/8KDWi2xVSYXMwOxoVb22FDZy/stLh7JCvgzMsJiptt4QU9lT2J6fIcdm3zdn6TLQCEgshqo4djAzoQDS0k35yBtnbK5uWkrndtu1Un4gYIRZhN2UZysNWDMScmM22y43jUFwqpT0Y7P6UWQEMiMSi06zaPtFAP1Ui7NgcN4D4oCh3AyFSZ/QdLzorkLiYg7COHtHRLVATu16xPwuLATq5lsgXQXiMYr8ZahxTF+G5Lbynkhpx7UjoVDvsdw20nKYnlQM6RPWM83nsK7fA9EpW00DungXURWgzcmG9+jcEQ8lwDP2uxs1Q4cmIBr4gmbakCvBS8PlQl+luEIBtywBDMC/HbdPcwSfIXCPIEbkvGLxo85TANpFuH6InATVxmdUZy02PdIGLzPhxK8oi5Vpu3krqvs/R1w5DcB8wAq0nJ1Ah1laYUoS4ekQgaiJMOWHquV73UYpR7LIyxJoirDIBX+uWrPQbC7w2a3/yXfYcUGCQGR1SCNxqXoy003kbT4fx4EBV+dxyr29hVV6KgqNrFEq/QKtgKChWqQuKDQcskK0746pKoE0yWnFhIUttZQGAq/f/zwnbT4BuE+yFiMh5DAIGsJ5HRyz7V2duYa6KhAjZCoGNgmQ6SXVizmpJlpNKbmy4da7E/WFU9iKRITAvNCFPFIVM/jXW6x2amXvbQuA4uAyGpgh+YSdCxM1yJ54SeNX/qJE6CZy8q2b65kn3mmZn89uBsriDy1Br9y5LtxJtiAp9YkWDFkoHI9MATiKVMEGkI6kkpQ7C9O7oJ+6lo7t/0AdGf43rlExdpexImKrbGpVkiZpZWQuwvli2XSySD60SKt2GpKqpAiyxUo02skqkN2tPrbXLuKDCQCIquBHJYt6lQgr6Dojl04cmQZmihQD+ypSFZhVwwIAQzl5cEDGTGhUkoV4CiURQ5Ph56f3mvv777Gzk99BAp4tJMq9CM1BSoJpLM2YbE3yImck0ZbH7EF1kbwaOhJ7E9Mpg1XGdPelQ+ex8z2ZvtxVRuTHbPBv4isBn+MtriHbkgOKQrTJq4C1jnPYgjqq3BfJBHEeVgFvWPNb99n7++62pYmcfoMpbNIVKzTxj8pzXh7vG9vMv+QNkJqr+TN0TarLRGNeFu4MJ06t3IFRFV/DtPeQ/aAiCpAOxxXkdVwjNPW9bICJXuNewJ9JZBW7N37wmliGc786ONqfvt+O73jKhzftcsrcftPjoTayKTYqpNMMdHjbCElpLbbWJRPyBFWoCnUwMIBiQpTv3IVRJVIooqYDcmnyGpIBmrLulmDNNQAWSVtpgsdO8NpIgwTaqUJm5/5sJ2Z+RjMILDi5/PEQDBrkVAU1jjNzIio7Y6pHUPMTPmL5fKEhQz0vUzXOiSq5GYRVUcwBzpDZDXQwzMAnaNRKM3ZeaQWbZL8cNM1+kVlO+2larBZOvuhy21+25VhxS9nYR4qFgkrT1GrGy+Wb00S2xhqVSNMIEvCMh3HgzXqz+L2NhDV71c/QCnDgIDIahhGaUv7SHtJrJ7RnJNuYnxVcI0O0Sp9GVLU/2ausMVp+I/HpmcsHbYLSrlaqwkI2U44vDC0EVEaizme7ZeYkpbNRZkG/+5w7McDHpLK7TabvNqqqrthQ0BkNWwjdqn724Bk1aRnBd+Sgu9LTmdFdoDdOlb8Fqs7YD91hS1NXYY0rhzmyWatfrNE5JcsPyYUpoTMX7O8Vwz9iG24Mt2JClPY+i8gYN0qy/QIzvB+iqyGd+wuTc95RIQv/VHBTr1VpmAi0WDqB6I6P7kT9lOX2wcTPFQB5cEqkXP8pgtvdcxy/vFL7kVj+az9LDeUdeU6NiQzttJ4FPsX77SHJv+WldLN0CIgshraobuEHee5gNzs6zqrlIboeaEB4lqa2mnnt+2H/6ttoUcpm+SU3Ks5J9d7VllNPrHI2pU71ilx0xAFuwehUD9ix6feiA3pc7gREFkN9/htfu+pYE+4J5BSlSvZEYc0RVOGhcndtoBpH705eIhiT9qtQFi99LFQMVbJeCq7iTn+2U5Y3FBTRj+acNq3ktxnjaUf2sPb/pMrr8hQIyCyGurhuxSdh6Cy0qAFKL8r/IRrGezrW4CTvyVsoaH/dCR1DBmhrM03aT24oYFs5dPKYkusx5BNP/MP8xguNPZsNs/h/254OL0PRHUy1NN1VBAQWY3KSG7WezQ4QSMhkaywKshVvsWp3bZU3QlpKzJJ96fnCItF83zj0dhSVrbYZFaAN+0NQKKisSe8pVrzCGy8Zu2RBPcKo4ZAbmln1F5O77MBCHA10A+MAFk14E7l/NReeE/onahiF9rpJaat/gyMdOGyGXPhAAwS1dsgqu9a9dT9IqrVoI5KiiSrURnJTXsPqKNW4C7GEvjAAkktV3AoRTEUhZ1ifhrPpKYW16xRMjQWCSsWzQpmz0rgJ76KMwf/DkPVW2GMesIe3M8TaRRGFAFJViM6sBv2Wo1laJKwgXkZq33LFWydWcUe6aM6pRd6EkmokFyIdm+MHkkrcDNTX3kVRPUte/3FxyFRiagKII5aVJLVqI3oZrxPo1K1lQmqv6m76hIyqadLGWT1K2G1qItrfnAOWIb30uaLcAJxix2zF8w+2xsFdu+VcgccAZHVgA/QlnePCvYGt85scMgIi+1GNlrFOYH9QjIMIXAgKk8XqzWxzy+BVXryhw3ulZobYAQ2/ks4wC+rrq0DgdokVAU4MKJnhUHgl56eFAkrctXalZBLn+/QT7FcY+Uxq5TuxD6/19YurtRRRUBkNaoju2HvBQV7+xabntrtk7DYZmfCorEnj61fBlE9AKK6B0T17566oUIjhYDIaqSGcxNeZhFn3kzy8M9+2+6DsELTqECn6e0Pwj0V6Q23oboLRDWLqd97/fZE5UcDAZHVaIzj5r1F2abBH9tzHLLxT6PynptzENpIroo9iXV7C5LdbXb21M/sxH6eg6gwpgiIrMZ04Ht+bW6DwTGgPZfPFWwjnlx6IUJhKhQN1xJOpajimcvN13AwxSFIV0+DqHgKj8IYI7DOL+EYIzZur47tyiCSc04m63p38k8fgZumcaIfTjb8DQ4e/bodv/0pTP1EVH1AOKpFJVmN6shu1HvVcYpzYqfXK1uFbvQgYVG6KsPJH4vWm3CYl3zfjldf2ajXUDvDj4DIavjHcHPfIIHOqGGvuzloD5zTuTNdKtPnAomqCXmqsXIMG6fvtuOJ/FB1BnMsczQNHMth7+OluY2laX8CYb13cdJVp2dyxc+J6gwo67Atlg6LqDphNd7pIqvxHv9e3/53IKyXLrTZ5sKNUboqhCq+gvXmWyCqb0OR/wN7XKYJBYQUTREQWemrcGEEHkn+BcnqBMwI5kAoFxlSwqIrLGw3BFG9ghW/r9ob9igU6QsX2biqjzACIqsRHtwNfbWS/RLSz08hYRUOuFnHU0hUJL2a/Qq+sr5mD1eetReS+jpaUpUxQkBkNUaDfVGvejyZh2T1I0hYj/l0MDg47q9JX/FDlUBUj6Otb9rDfugocxSEQFcEUpm8axllCoEWAjc0D4CsvgNl+434TyAd9R6wzRAEtQAJ7V7UvM8eSv7be2WVHHcERFbj/g1Yz/t/pbnXttkXQTjfgJT0cW+igSv/i4ESWPSCVbc/I3YXyOoZrPjNF4sqLgS6ISCy6oaO8joj8KXmhO20q1Hgc9BjfQGf14G4tjkxxUkdyavu1u9/xN2TILNf2wH7px2Wfgp4KPSJgMiqT8BUvIDAjU24O7YdOKz9YyCjqyFthUNGWaxpi0j7B/7fBImdlevhAnaK9oWAyKovuFS4KwI3NqvYmNP6Tu0GXWlfX1fIlCkEhIAQEAJCQAgIASEgBISAEBACQkAICAEhIASEgBAQAkJACAgBISAEhIAQEAJCQAgIASEgBISAEBACQkAICAEhIASEgBAQAkJACAgBISAEhIAQEAJCQAgIASEgBISAEBACQkAICAEhIASEgBAQAkJACAgBISAEhIAQEAJCQAgIASEgBISAEBACQkAICAEhIASEgBAQAkJACAgBISAEhIAQEAJCQAgIASEgBISAEBACQkAICAEhIASEgBAQAkJACAgBISAEhIAQEAJCQAgIASEgBITAagT+D67gs7HVxLm9AAAAAElFTkSuQmCC;" vertex="1" parent="1">
                    <mxGeometry x="630" y="362" width="38" height="38" as="geometry"/>
                </mxCell>
                <mxCell id="22" value="Schema Registry" style="rounded=0;whiteSpace=wrap;html=1;fontSize=10;fillColor=#0050ef;fontColor=#ffffff;strokeColor=#001DBC;" vertex="1" parent="1">
                    <mxGeometry x="319" y="420" width="120" height="30" as="geometry"/>
                </mxCell>
                <mxCell id="23" value="Connect Worker" style="rounded=1;whiteSpace=wrap;html=1;fillColor=#f5f5f5;fontColor=#333333;strokeColor=none;shadow=1;verticalAlign=bottom;arcSize=5;" vertex="1" parent="1">
                    <mxGeometry x="150" y="70" width="130" height="170" as="geometry"/>
                </mxCell>
                <mxCell id="24" value="Connect Worker" style="rounded=1;whiteSpace=wrap;html=1;fillColor=#f5f5f5;fontColor=#333333;strokeColor=none;shadow=1;verticalAlign=bottom;arcSize=5;fontStyle=1" vertex="1" parent="1">
                    <mxGeometry x="340" y="70" width="130" height="170" as="geometry"/>
                </mxCell>
                <mxCell id="25" value="Connect Worker" style="rounded=1;whiteSpace=wrap;html=1;fillColor=#f5f5f5;fontColor=#333333;strokeColor=none;shadow=1;verticalAlign=bottom;arcSize=5;fontStyle=1" vertex="1" parent="1">
                    <mxGeometry x="530" y="70" width="130" height="170" as="geometry"/>
                </mxCell>
                <mxCell id="26" value="External System Source&lt;br&gt;" style="rounded=0;whiteSpace=wrap;html=1;shadow=1;" vertex="1" parent="1">
                    <mxGeometry x="10" y="110" width="120" height="60" as="geometry"/>
                </mxCell>
                <mxCell id="27" value="External System Sink" style="rounded=0;whiteSpace=wrap;html=1;shadow=1;" vertex="1" parent="1">
                    <mxGeometry x="700" y="114" width="120" height="60" as="geometry"/>
                </mxCell>
                <mxCell id="35" style="edgeStyle=orthogonalEdgeStyle;html=1;exitX=0.5;exitY=1;exitDx=0;exitDy=0;" edge="1" parent="1" source="28" target="30">
                    <mxGeometry relative="1" as="geometry">
                        <Array as="points">
                            <mxPoint x="70" y="200"/>
                            <mxPoint x="215" y="200"/>
                        </Array>
                    </mxGeometry>
                </mxCell>
                <mxCell id="28" value="" style="rounded=0;whiteSpace=wrap;html=1;shadow=0;strokeColor=none;" vertex="1" parent="1">
                    <mxGeometry x="40" y="160" width="60" height="20" as="geometry"/>
                </mxCell>
                <mxCell id="29" value="" style="rounded=0;whiteSpace=wrap;html=1;shadow=0;strokeColor=none;" vertex="1" parent="1">
                    <mxGeometry x="730" y="108" width="60" height="20" as="geometry"/>
                </mxCell>
                <mxCell id="36" style="edgeStyle=orthogonalEdgeStyle;html=1;entryX=0.75;entryY=0;entryDx=0;entryDy=0;strokeColor=#0000FF;dashed=1;" edge="1" parent="1" source="30" target="20">
                    <mxGeometry relative="1" as="geometry"/>
                </mxCell>
                <mxCell id="30" value="Source Task" style="rounded=0;whiteSpace=wrap;html=1;shadow=0;fillColor=#dae8fc;strokeColor=#6c8ebf;" vertex="1" parent="1">
                    <mxGeometry x="160.5" y="160" width="109" height="20" as="geometry"/>
                </mxCell>
                <mxCell id="34" style="edgeStyle=orthogonalEdgeStyle;html=1;entryX=0.5;entryY=0;entryDx=0;entryDy=0;exitX=1;exitY=0.5;exitDx=0;exitDy=0;" edge="1" parent="1" source="31" target="29">
                    <mxGeometry relative="1" as="geometry">
                        <Array as="points">
                            <mxPoint x="680" y="170"/>
                            <mxPoint x="680" y="80"/>
                            <mxPoint x="760" y="80"/>
                        </Array>
                    </mxGeometry>
                </mxCell>
                <mxCell id="31" value="Sink Task" style="rounded=0;whiteSpace=wrap;html=1;shadow=0;fillColor=#d5e8d4;strokeColor=#82b366;" vertex="1" parent="1">
                    <mxGeometry x="540.5" y="160" width="109" height="20" as="geometry"/>
                </mxCell>
                <mxCell id="37" style="edgeStyle=orthogonalEdgeStyle;html=1;strokeColor=#0000FF;dashed=1;exitX=0;exitY=0;exitDx=0;exitDy=0;" edge="1" parent="1" source="6" target="31">
                    <mxGeometry relative="1" as="geometry">
                        <mxPoint x="224.5" y="150" as="sourcePoint"/>
                        <mxPoint x="267.5" y="320" as="targetPoint"/>
                        <Array as="points">
                            <mxPoint x="374" y="260"/>
                            <mxPoint x="595" y="260"/>
                        </Array>
                    </mxGeometry>
                </mxCell>
                <mxCell id="38" value="Source Task" style="rounded=0;whiteSpace=wrap;html=1;shadow=0;fillColor=#dae8fc;strokeColor=#6c8ebf;" vertex="1" parent="1">
                    <mxGeometry x="351" y="120" width="109" height="20" as="geometry"/>
                </mxCell>
                <mxCell id="39" value="Sink Task" style="rounded=0;whiteSpace=wrap;html=1;shadow=0;fillColor=#d5e8d4;strokeColor=#82b366;" vertex="1" parent="1">
                    <mxGeometry x="350.5" y="160" width="109" height="20" as="geometry"/>
                </mxCell>
                <mxCell id="40" value="Sink Task" style="rounded=0;whiteSpace=wrap;html=1;shadow=0;fillColor=#d5e8d4;strokeColor=#82b366;" vertex="1" parent="1">
                    <mxGeometry x="160" y="120" width="109" height="20" as="geometry"/>
                </mxCell>
                <mxCell id="41" value="Source Task" style="rounded=0;whiteSpace=wrap;html=1;shadow=0;fillColor=#dae8fc;strokeColor=#6c8ebf;" vertex="1" parent="1">
                    <mxGeometry x="540.5" y="120" width="109" height="20" as="geometry"/>
                </mxCell>
            </root>
        </mxGraphModel>
    </diagram>
</mxfile>